<svg xmlns="http://www.w3.org/2000/svg" viewBox="0 0 1441.03 1181.19"><defs><style>.st0{fill:#00b3bd;}</style></defs><title>services_clean10</title><g id="Layer_2" data-name="Layer 2"><g id="Layer_1-2" data-name="Layer 1"><path id="Shape-2" class="st0" d="M1245.49,191.91l1.68,9.71a42.09,42.09,0,1,1-16.93-27l8,5.74L1418.13,67.91h0L1402.53,43c-44.9,28.07-247.78,22.45-322.15,17.93l-13-.8L1065,72.86a712.56,712.56,0,0,1-26,98.2,42.43,42.43,0,0,0-47.16-1.44L961,188.9A41.94,41.94,0,0,0,942,216L763.38,324.24l-60-38.26.14-.21-12.82-7.87-.17-.11h0L596.2,220c-4.5-22.31-24-91.47-99.4-146.83C396-.87,240.42-18.81,34.51,19.78L0,26.26l28.81,20c1.36.94,134.89,94.81,138.66,184.12,3.14,74.2,31.93,136.16,81.06,174.43C285.26,433.44,331.41,448,384.29,448a332.46,332.46,0,0,0,62-6.21L539.86,499h0L631.64,556l.22,385v4.88l133.51,235.33,58.74-103.86,2.89-3.9h-.69l72.5-128.18V941L899,556.07l193.22-117.85a42,42,0,0,0,9.37,1.1,42.44,42.44,0,0,0,22.51-6.46L1155,413.57a41.29,41.29,0,0,0,19.63-39.22,559.61,559.61,0,0,1,91.58,20l12.89,4,5.14-12.47c28.28-68.71,111.55-253.21,156.78-281.51h0L1425.4,79.43,1245.49,191.91Zm-453,881.52,76.34-135c-14.46-9-33.18-7.43-46.44,3.39a23.49,23.49,0,0,1-29.6,0,41.55,41.55,0,0,0-51.94,0,23.49,23.49,0,0,1-29.61,0c-13.9-11.36-34.75-11.66-49.37-2.78l76.22,134.35Zm77.12-533.86-.22,366.84c-16-5.28-33.91-4-49.57,2.93l-.07-395.84,218.51-133.9,27.63,40.25L869.61,539.57ZM790.36,907.5a72.31,72.31,0,0,0-50,1.16l.07-411.5-127.3-79.86,28.67-41.7,121.44,76,229-139.11,29.42,42.87L790.29,497.06l.07,410.44ZM568.49,482.19l27.94-40.62L711,513.41l-.08,394.66a73.43,73.43,0,0,0-49.57-1l-.21-367.43-92.59-57.45ZM587.14,248.9l74.57,45.72L543.41,466.73,470,421.79,587.14,248.9ZM266.65,381.66c-42.22-32.88-67-87-69.76-152.48C193.63,152.23,115.48,78,72.76,42.94,253.45,13.72,389.89,31.62,478.64,96.28c67.54,49.21,84.93,111.68,88.65,129.45L440.42,413c-70.3,13.28-130.29,2.54-173.76-31.31ZM763,358.87,947.54,247c.35.57.59,1.19,1,1.76l27,39.36L763.44,417l-105-65.69,28.24-41.08Zm382.23,21.41a12.8,12.8,0,0,1-5.84,8.36l-30.84,19.28a13.37,13.37,0,0,1-17.66-3.67L972.8,232.19a13,13,0,0,1,3.84-18.37l30.85-19.28a13,13,0,0,1,17.65,3.67l118.07,172.06A12.89,12.89,0,0,1,1145.21,380.29ZM256.08,273.84l-27.4,10.8c22.56,57.06,76.74,89.79,165.66,100l3.38-29.21C295,343.62,267.68,303.21,256.08,273.84Zm1006,88.55a607.86,607.86,0,0,0-102-19.51l-99.31-144.73A747.63,747.63,0,0,0,1091.45,91c40.54,2.13,152.41,6.77,236.85-1.59l-89.59,56a71.38,71.38,0,1,0,38.49,61.39l89.4-55.89c-44.26,71.95-88.61,173.86-104.49,211.52ZM231.18,135.2l-25.93,13.94c12.47,23.14,20.21,50.71,23,82l29.33-2.59C254.45,193.26,245.57,161.86,231.18,135.2ZM149.54,92a138.88,138.88,0,0,1,29.1,21.6l20.52-21.11A168.77,168.77,0,0,0,163.9,66.37L149.54,92Z"/></g></g></svg>