<svg xmlns="http://www.w3.org/2000/svg" viewBox="0 0 50 50"><defs><style>.st0{fill:#00b2bc;}</style></defs><title>services_clean04</title><g id="Layer_2" data-name="Layer 2"><g id="Layer_1-2" data-name="Layer 1"><g id="Layer_2-2" data-name="Layer 2"><g id="Layer_1-2-2" data-name="Layer 1-2"><path class="st0" d="M25,18.3A6.69,6.69,0,1,0,31.7,25,6.69,6.69,0,0,0,25,18.3Zm0,12.3A5.61,5.61,0,1,1,30.61,25h0A5.61,5.61,0,0,1,25,30.6ZM6.21,25.23a23.85,23.85,0,0,0,9.62,9.89A49.47,49.47,0,0,0,24,45.2h-.82l-.54.54v1.32H11.41a1.36,1.36,0,1,0,0,1.08H22.6v1.32l.54.54h3.72l.54-.54V48.14H38.59a1.36,1.36,0,1,0,0-1.08H27.4V45.74l-.54-.54H26a50.83,50.83,0,0,0,8.09-10.07,24,24,0,0,0,9.67-9.9v-.47C43.7,24.64,38,13,25.66,12.62H24.28c-12.42.42-18,12-18.1,12.14v.46Zm3.88,22.46a.11.11,0,0,1,0-.08.11.11,0,0,1,0-.09Zm29.74,0v-.24a.12.12,0,1,1,0,.24Zm-13.51,1.2H23.68V46.28h2.63v2.61ZM25,44.68C23,42.81,13.7,33.56,13.7,25A11.32,11.32,0,0,1,24.4,13.71h1.2A11.32,11.32,0,0,1,36.31,25C36.31,33.43,27,42.8,25,44.68ZM42.69,25a23.86,23.86,0,0,1-7.55,8.28A18.79,18.79,0,0,0,37.39,25,12.36,12.36,0,0,0,33,15.51,23.3,23.3,0,0,1,42.69,25ZM17.07,15.49A12.37,12.37,0,0,0,12.61,25a18.86,18.86,0,0,0,2.22,8.27A23.66,23.66,0,0,1,7.31,25,23.11,23.11,0,0,1,17.07,15.49ZM25.54,0H24.46V7.54h1.08ZM0,24.45v1.08H5.45V24.45Zm50,0H44.55v1.08H50ZM37.37,11.86l.77.77L43.06,7.7l-.77-.77ZM7.7,6.93l-.76.76,4.93,4.92.77-.77Zm8.5-5.35-1,.4L18,9l1-.4ZM48.41,16.2l-.4-1-5.06,2,.4,1ZM34.34,1.8,31.6,8.2l1,.43,2.74-6.4ZM8.63,17.4l-6.4-2.74-.43,1L8.2,18.4Z"/></g></g></g></g></svg>