<svg xmlns="http://www.w3.org/2000/svg" viewBox="0 0 1043.5 1173.1"><defs><style>.st1{isolation:isolate;}.st0{fill:#00b2bc;}</style></defs><title>services_clean05</title><g id="Layer_2" data-name="Layer 2"><g id="Layer_1-2" data-name="Layer 1"><g id="Layer_2-2" data-name="Layer 2" class="st1"><g id="Layer_1-2-2" data-name="Layer 1-2"><path class="st0" d="M987.7,36.13a55.78,55.78,0,0,0-54.28,43.21H613.62V12.74A12.49,12.49,0,0,0,601.39,0h-159a12.49,12.49,0,0,0-12.49,12.49V79.1H110a55.7,55.7,0,1,0,0,25H381.08A406.22,406.22,0,0,0,118.4,431.53a55.62,55.62,0,0,0,0,109.9A408.63,408.63,0,0,0,312.81,835.58v25.48H285.92a12.49,12.49,0,0,0-12.49,12.49V945a12.49,12.49,0,0,0,12.49,12.49h27v31.39h-27a12.49,12.49,0,0,0-12.49,12.49v71.44a12.49,12.49,0,0,0,12.49,12.49H421.8a100.74,100.74,0,0,0,199.82,0h136a12.49,12.49,0,0,0,12.49-12.49v-71.44a12.49,12.49,0,0,0-12.49-12.49H730.6V957.47h27.06A12.49,12.49,0,0,0,770.15,945V873.55a12.49,12.49,0,0,0-12.49-12.49H730.6V835.58a408.72,408.72,0,0,0,194.32-294.4,55.62,55.62,0,0,0,0-109.9,406.63,406.63,0,0,0-262.6-326.87H933.5a55.7,55.7,0,1,0,54.28-68.19ZM454.85,25h133.8v133.8H454.85ZM55.71,122.64a30.72,30.72,0,1,1,.33,0ZM96.42,486.48a30.72,30.72,0,1,1,30.72,30.72h0A30.72,30.72,0,0,1,96.42,486.48ZM521.71,1149a75.85,75.85,0,0,1-74.93-63.36H596.39A75.85,75.85,0,0,1,521.71,1149ZM745,1060.63H298.41v-46.46H745Zm-39.46-71.44H337.87V957.47H705.62ZM745,932.49H298.41V886H745ZM521.71,472.66a27,27,0,1,1-27,27v-.08A27,27,0,0,1,521.71,472.66ZM509.22,449.6a52,52,0,1,0,25,0V262.51L674.4,482.9c-77,53.7-76.26,116.56-72.27,141.54H441.28c4-25,4.75-87.75-72.27-141.54L509.22,262.51ZM666.08,649.42v27.48H377.34V649.42ZM608.79,861.22H533.86V701.87h74.93ZM508.88,702V861.22H434V701.87ZM946.66,486.64a21.72,21.72,0,1,1,.41-.42q0,.13,0,.25ZM900,432.94a55.7,55.7,0,0,0,0,106.49A383.65,383.65,0,0,1,711.87,817.6a12.49,12.49,0,0,0-6.24,10.82v32.64H633.77V701.87h44.79a12.49,12.49,0,0,0,12.49-12.49V636.76a12.49,12.49,0,0,0-12.49-12.49H627.69c-3.25-14.4-11.16-75.77,70.69-127.3a12.49,12.49,0,0,0,4-17.21l-.07-.11-170-266.43h0a12.49,12.49,0,0,0-20.9,0h0l-170,266.51a12.49,12.49,0,0,0,3.8,17.25l.11.07C427.12,548.59,419.22,610,416,624.35H364.85a12.49,12.49,0,0,0-12.49,12.49v52.54a12.49,12.49,0,0,0,12.49,12.49h44.79V861.06H337.87V828.42a12.49,12.49,0,0,0-6.24-10.82A383.57,383.57,0,0,1,143.46,539.68a55.7,55.7,0,0,0,0-106.49A381.24,381.24,0,0,1,429.87,115.56v55.78a12.49,12.49,0,0,0,12.49,12.49H601.13a12.49,12.49,0,0,0,12.49-12.49V115.56A381.57,381.57,0,0,1,900,432.94ZM987.7,122.39a22,22,0,1,1,.33.25h-.33Z"/></g></g></g></g></svg>