<svg xmlns="http://www.w3.org/2000/svg" viewBox="0 0 974.84 1191.21"><defs><style>.st0{fill:#00b2bc;}</style></defs><title>services_clean07</title><g id="Layer_2" data-name="Layer 2"><g id="Layer_1-2" data-name="Layer 1"><g id="Layer_2-2" data-name="Layer 2"><g id="Layer_1-2-2" data-name="Layer 1-2"><path class="st0" d="M153,261.81a49.77,49.77,0,1,0,49.77,49.77h0A49.86,49.86,0,0,0,153,261.81Zm0,73.53a23.76,23.76,0,1,1,23.76-23.76A23.76,23.76,0,0,1,153,335.35Z"/><path class="st0" d="M279.91,261.81a49.77,49.77,0,1,0,49.6,49.95v-.17A49.86,49.86,0,0,0,279.91,261.81Zm0,73.53a23.76,23.76,0,1,1,23.59-23.93q0,.09,0,.17A23.76,23.76,0,0,1,279.91,335.35Z"/><path class="st0" d="M406.69,261.81a49.77,49.77,0,1,0,49.77,49.77h0A49.86,49.86,0,0,0,406.69,261.81Zm0,73.53a23.76,23.76,0,1,1,23.76-23.76,23.76,23.76,0,0,1-23.76,23.76Z"/><path class="st0" d="M273.41,858.58c107.75-.14,195-87.61,194.85-195.37s-87.61-195-195.37-194.85S78,555.82,78,663.47C78.14,771.29,165.59,858.63,273.41,858.58ZM168.49,795.8a51.16,51.16,0,0,1,38.85-46.91,50.55,50.55,0,0,0,11.1-4.25,60.7,60.7,0,0,0,13.09,23,55,55,0,0,0,41.88,16.65,55,55,0,0,0,41.8-16.65,60.7,60.7,0,0,0,13.09-23,50.55,50.55,0,0,0,11.1,4.25,51.16,51.16,0,0,1,38.85,46.91,168.14,168.14,0,0,1-209.85,0Zm52.81-98.33c0,1.56-.78,3.56-1.39,5.72a100.5,100.5,0,0,1-22.63-3.12,219.65,219.65,0,0,0,12.05-58.36v18.82A63.13,63.13,0,0,0,221.29,697.46ZM243,716.54a63.13,63.13,0,0,0,29.92,7.54h.87a63.13,63.13,0,0,0,29.74-7.54,50.12,50.12,0,0,0,2.51,5.9A45.52,45.52,0,0,1,296,749.84a29.66,29.66,0,0,1-22.89,8.67,29.66,29.66,0,0,1-22.81-8.67,45.44,45.44,0,0,1-9.71-27.58,50.21,50.21,0,0,0,2.25-5.72Zm83.85-13.35c-.61-2.17-1-4.16-1.39-5.72a63.13,63.13,0,0,0,12-36.94v-18.9A219.73,219.73,0,0,0,349.46,700,99.46,99.46,0,0,1,326.82,703.19Zm2.08-102.93c-34.69-12.83-41.28-46.91-42.32-65.64a60,60,0,0,1,31,16.65,60.7,60.7,0,0,1,17.86,43.36V609.8ZM311.56,621v39.54A37.63,37.63,0,0,1,274,698.07h-.87a37.63,37.63,0,0,1-37.55-37.55V621a84.89,84.89,0,0,0,37.81-37.46,85,85,0,0,0,38,37.46Zm-93.74-20.81-6.68,9.37V594.36A60.7,60.7,0,0,1,229,551a60,60,0,0,1,31.13-16.48C259.1,553.35,252.34,587.42,217.83,600.17Zm55.58-105.79A168.83,168.83,0,0,1,400.62,774.29,77.18,77.18,0,0,0,353,725.73a122.52,122.52,0,0,0,19.86-6.07l5.9-18.56c-11.36-19-17.34-55.76-17.34-106.31a86.71,86.71,0,0,0-85.93-87.49H272A86.71,86.71,0,0,0,185.3,594q0,.39,0,.78c0,50.55-5.81,87.32-17.34,106.31l5.9,18.56A117.85,117.85,0,0,0,193.55,726a77.18,77.18,0,0,0-47.35,48.3A168.83,168.83,0,0,1,273.41,494.38Z"/><path class="st0" d="M440.16,910.43H106.66a13,13,0,0,0,0,26h333.5a13,13,0,0,0,0-26Z"/><path class="st0" d="M440.16,976.08H106.66a13,13,0,1,0,0,26h333.5a13,13,0,1,0,0-26Z"/><path class="st0" d="M13,1191.21H961.83a13,13,0,0,0,13-13V204.84a13,13,0,0,0-13-13h-112V157.15a13,13,0,0,0-13-13h0l.78-17.34a13,13,0,0,0-12.48-13.52H802.62V76.85a74.31,74.31,0,0,0-148.54-5.08q-.09,2.54,0,5.08v36H632.32a13,13,0,0,0-13,13q0,.27,0,.53l.78,17.34h0A13,13,0,0,0,607,156.63q0,.13,0,.26V161H584.45a13,13,0,0,0-13,13q0,.36,0,.71l.87,17.34H13A13,13,0,0,0,0,204.84v973.36A13,13,0,0,0,13,1191.21ZM817.28,872.89,741.4,991.94V896.56a37.72,37.72,0,1,0-26,0v95.39L639.51,872.89c41.54-31,45.52-66.08,44.14-84.89h89.49C771.75,806.81,775.74,841.93,817.28,872.89Zm-88.88,0a11.84,11.84,0,1,0,0-.09ZM643,762V755H813.72V762Zm-9.28-297.6-1.82-6,1.39-4.6ZM665.79,606.5,649,210.65H807.83L791,606.5Zm13.18,26h36.42V729H679ZM741.4,729V632.52h36.42V729ZM809,184.64H647.84L647.23,170H809.56ZM623.21,217.85l8,186.69H609.25L599.8,217.85Zm8.67,212.71v9.63a12.92,12.92,0,0,0-21.68,0l-.43-9.19Zm-45,55.32a13,13,0,0,0,13,12.31h.69l26-1.3a13,13,0,0,0,8.15-3.47l5.38,126.69a13,13,0,0,0,12.57,12.4V729H630a13,13,0,0,0-13,13v33a13,13,0,0,0,13,13h27.49c1.47,12.31,0,43.36-42.66,70.24a13,13,0,0,0-4.15,17.92l.07.12,106.66,167.36h0a13.1,13.1,0,0,0,1.91,2.25l.61.52,1.73,1.3.87.43,2,.78h.78a12,12,0,0,0,6,0H732l2-.78.87-.43,1.73-1.3.61-.52a13,13,0,0,0,1.91-2.25h0L845.81,876.27a13,13,0,0,0-4-18l-.12-.07c-42.66-26.88-44.14-57.84-42.66-70.24h27.49a13,13,0,0,0,13-13V742a13,13,0,0,0-13-13H803.84V632.52a13,13,0,0,0,12.57-12.4l8.06-189.56H948.82v642.72h-189v-4.16a13,13,0,0,0-13-13h-34a13,13,0,0,0-13,13v4H26V430.56H584.45Zm361.6,679.32H26v-65.9H699.78v4a13,13,0,0,0,13,13h34a13,13,0,0,0,13-13v-4H948.91Zm0-760.65H825.6l8-186.69H948.91ZM679.66,76.85a48.3,48.3,0,1,1,96.51-4.09q.09,2,0,4.09v36H680.1Zm-34.25,62H810.17v5H645.41ZM598.33,187H607v4.77h-8.67ZM26,217.85H573.7l9.45,186.69H26Z"/></g></g></g></g></svg>