<svg xmlns="http://www.w3.org/2000/svg" viewBox="0 0 1446.06 1193"><defs><style>.st0{fill:#00b3bd;}</style></defs><title>services_clean09</title><g id="Layer_2" data-name="Layer 2"><g id="Layer_1-2" data-name="Layer 1"><path id="Shape-9" class="st0" d="M1260.6,1110.21,1231,1083.82c-6.15-5.79-6.87-15.18-1.09-21.33a15,15,0,0,1,21.33-1.09l58.93,52.42a15.41,15.41,0,0,1,5.06,11.2,14.29,14.29,0,0,1-5.06,11.21L1251.2,1189a15.54,15.54,0,0,1-10.12,4,15.18,15.18,0,0,1-10.12-26.39l29.64-26.39H262.46l29.64,26.39a15,15,0,0,1,1.09,21.33,14.91,14.91,0,0,1-21.33,1.09l-58.93-52.78a14.29,14.29,0,0,1-5.06-11.21,15.41,15.41,0,0,1,5.06-11.2l58.93-52.42a15,15,0,0,1,21.33,1.09c5.79,6.15,5.06,15.54-1.09,21.33l-29.64,26.39ZM1294.95,0a15,15,0,0,1,15.19,15.19V347.42a15,15,0,0,1-15.19,15.19c-70.86,0-132.67-50.25-146.77-118.94a80.8,80.8,0,0,0-78.81-64H967.78a43.52,43.52,0,0,0-38,64.71L1265.3,876.67c18.8,32.9,55,53.87,93.63,54.23h8c43.74,0,79.17,35.07,79.17,78.45a15.27,15.27,0,0,1-15.19,15.18H1039a15.28,15.28,0,0,1-15.19-15.18c0-43.38,35.79-78.45,79.17-78.45a47.66,47.66,0,0,0,41.21-23.5,46.35,46.35,0,0,0,.72-47.36l-70.14-124.73H834.38V930.9H879.2c43.75,0,79.17,35.07,79.17,78.45a15.28,15.28,0,0,1-15.19,15.18H502.87a15.28,15.28,0,0,1-15.19-15.18c0-43.38,35.79-78.45,79.17-78.45h44.83V735.32H371.28L301.14,860a46.35,46.35,0,0,0,.72,47.36,47.66,47.66,0,0,0,41.21,23.5c43.38,0,79.17,35.07,79.17,78.45a15.28,15.28,0,0,1-15.19,15.18H15.19A15.27,15.27,0,0,1,0,1009.35C0,966,35.43,930.9,79.17,930.9h8a109.24,109.24,0,0,0,94-55l335.13-631.2a43.7,43.7,0,0,0-38-65.07H376.7a80.11,80.11,0,0,0-78.45,64C283.79,312.35,222,362.6,151.12,362.6a15,15,0,0,1-15.19-15.19V15.19A15,15,0,0,1,151.12,0Zm-15.18,30H166.3V331.51c49.89-6.51,91.83-44.11,101.95-94A111.35,111.35,0,0,1,376.7,149.67H478.28a73.46,73.46,0,0,1,64,36.51,72.31,72.31,0,0,1,.36,73L207.87,890.41A138.85,138.85,0,0,1,87.13,960.91h-8a49.2,49.2,0,0,0-46.63,33.62H389.35a48.75,48.75,0,0,0-46.27-33.62,77.83,77.83,0,0,1-67.6-38.32c-14.1-24.22-14.46-53.14-.72-77.36l74.47-132.32c2.53-4.7,7.59-7.59,13.38-8H626.87c8.68.36,15.19,6.87,15.19,15.19V945.72a15,15,0,0,1-15.19,15.18h-60a48.75,48.75,0,0,0-46.27,33.62h404.9a49.09,49.09,0,0,0-46.27-33.62h-60A15,15,0,0,1,804,945.72V720.14c0-8.32,6.51-14.82,15.19-15.19h264.27c5.79.36,10.85,3.25,13.38,8l74.47,132.32c13.74,24.22,13.38,53.14-.72,77.36a77.83,77.83,0,0,1-67.6,38.32,48.41,48.41,0,0,0-46.28,33.62h356.82a49.2,49.2,0,0,0-46.63-33.62h-8a138.25,138.25,0,0,1-120.38-70.13L903.06,258.85a72.52,72.52,0,0,1,.72-72.66,73.46,73.46,0,0,1,64-36.51h101.58a111.35,111.35,0,0,1,108.45,87.85c10.12,49.89,52.06,87.49,101.95,94ZM626.87,663.74H402.73A15.12,15.12,0,0,1,389,642.05L536.49,348.5a55.9,55.9,0,0,1,63.63-27.11c25.31,6.5,41.94,28.2,41.94,53.87v273.3A15,15,0,0,1,626.87,663.74Zm416.47,0H819.19A15,15,0,0,1,804,648.56V375.25c0-25.67,16.63-47.36,41.94-53.87,24.94-6.51,50.61,4,63.27,26.75l147.86,293.91a15.12,15.12,0,0,1-13.74,21.69Zm-431.65-30V375.25c0-14.46-9.76-22.41-19.16-24.95-9.4-2.17-22.05-.36-29.28,12.29L427.31,633.74Zm407.07,0L882.46,362.24c-6.87-12.29-19.52-14.1-28.92-11.93-9.4,2.53-19.16,10.49-19.16,24.95V633.74Z"/></g></g></svg>