<svg xmlns="http://www.w3.org/2000/svg" viewBox="0 0 805.3 1193"><defs><style>.st0{fill:#00b3bd;}</style></defs><title>services_clean08</title><g id="Layer_2" data-name="Layer 2"><g id="Layer_1-2" data-name="Layer 1"><path id="Shape-8" class="st0" d="M805.3,0V878.34H797l-3.85,3.58a119.4,119.4,0,0,0,0,177.16l7.67,6.86-8.92,23.86H338.78v93.35L316,1193l-84.11-83.51L147.78,1193,125,1183.16v-93.35h-7.13C52.61,1089.51,0,1036.12,0,970.51V119.3C0,53.69,52.61.3,117.87,0Zm-564,1080.86L312,1150.95V953.8H151.81v197.14l70.69-70.09Zm488.77-81.12a145.28,145.28,0,0,1-3.1-29.23,147.43,147.43,0,0,1,32.45-92.16H117.87c-50.19,0-91,41.46-91,92.16s40.83,92.16,91,92.16H125V940.08l13.39-13.42H455.13V953.8H338.78v108.86H759.4a145.7,145.7,0,0,1-21-35.79H483.76V999.73Zm48.44-148.53V27.14H117.87c-50.19,0-91,41.46-91,92.16V894.75a118.54,118.54,0,0,1,91-43.54ZM153.66,677.62h70.6l225-436.34H407V214.15H676v27.14H642.16V681.2H676v27.14H407V681.2h51V572.94H308.45l-54,104.69h86.61v27.14H153.66Zm461.69,0V588.75H484.75v88.88Zm0-116V473H484.75V561.6ZM457.93,545.8V532.38H329.36l-6.92,13.42Zm0-40.57V283L343.34,505.23Zm157.41-59.35V357.3H484.75v88.58ZM141,384.44V164.93h216.8Zm474.4-54.28V241.28H484.75v88.88ZM293,192.07H167.77V318.83Z"/></g></g></svg>