<svg xmlns="http://www.w3.org/2000/svg" viewBox="0 0 1105.71 1163.9"><defs><style>.st0{fill:#00b3bd;}</style></defs><title>services_clean03</title><g id="Layer_2" data-name="Layer 2"><g id="Layer_1-2" data-name="Layer 1"><path id="Shape-5" class="st0" d="M607.85,0a66.9,66.9,0,0,1,47.72,19.79,68.25,68.25,0,0,1,19.78,48.3V272.64C842.66,324.73,960.51,481,965.75,657H1053V897.08h-378v49.18l-67.8,121h.29L606.1,1069l-53.25,94.86L430.65,946.84V897.08h-378V657H140C145.2,481,263,324.73,430.35,272.64V68.09a68.25,68.25,0,0,1,19.78-48.3A66.9,66.9,0,0,1,497.86,0Zm-29.1,1067.3,71.58-127.74c-14-9.31-32.59-7.86-45.39,2.62a20.08,20.08,0,0,1-13.1,4.66,19.87,19.87,0,0,1-12.8-4.66,39.82,39.82,0,0,0-49.76,0,19.47,19.47,0,0,1-25.6,0,40,40,0,0,0-25-9,43.67,43.67,0,0,0-23.28,7L527,1067.3Zm71.58-170.22H602v17.75c15.13-7.27,33.17-8.44,48.3-2.91Zm-73,0H528.41v17.17a66,66,0,0,1,48.88-1.17Zm-73.61,0h-48.3v15.71a66,66,0,0,1,48.3.87ZM776.61,681.76H329.1V669.54A224.32,224.32,0,0,1,430.35,481.27V394.56l-.87.29L396,311.93a392.06,392.06,0,0,0-46.26,24.73l24.15,36.66L353.24,387,329.1,350.34A391.81,391.81,0,0,0,287.48,385L350,447.81l-17.46,17.75L270,402.42a440.87,440.87,0,0,0-33.17,40.74l36.37,24.44-14,20.66-36.08-24.44a381.92,381.92,0,0,0-22.41,41.61l81.47,34.92-9.6,23-81.47-34.92a370.08,370.08,0,0,0-15.71,50l42.77,9-4.95,24.44-43.06-9a388.62,388.62,0,0,0-5.82,66.63v12.22h-87v190.3h23.28V829.86h24.74v42.19h37.82V782.43H188v89.62H225.8V829.86h24.73v42.19h37.83V782.43h24.73v89.62h37.83V829.86h24.73v42.19h37.82V782.43h24.74v89.62H476V829.86h24.73v42.19H538.6V782.43h24.73v89.62h37.83V829.86h24.73v42.19h37.83V782.43h24.73v89.62h37.82V829.86H751v42.19h37.82V782.43h24.73v89.62h37.83V829.86h25v42.19H914V782.43h25v89.62H976.8V829.86h24.74v42.19h26.77V681.76h-87V669.54a398.5,398.5,0,0,0-5.53-64.89l-43.06,8.73-4.95-24.44,43.06-8.73a385.63,385.63,0,0,0-13.68-45.1L835.1,568.28l-9.31-23,82.05-33.17a337.06,337.06,0,0,0-24.44-46.56L847,489.42l-13.38-20.66,36.08-24.15a360,360,0,0,0-34-42.19l-62.56,63.14-17.46-17.75L818.22,385a371.23,371.23,0,0,0-40.15-33.46l-24.44,36.66L733,374.49l24.44-37a402.6,402.6,0,0,0-41.32-22.41l-34.62,82.06-6.11-2.33v86.42c63.43,41.61,101.26,112,101.26,188.26ZM577.29,657V228.12H528.41V657Zm73.33,0V228.12H602V657Zm100.68,0a199.77,199.77,0,0,0-75.94-145.2V657Zm-320.94,0V511.83A199.25,199.25,0,0,0,354.41,657Zm73.33,0V228.12H455.09V657ZM115.52,437.92,14,368.38,0,389l101.55,69.25Zm888.64,20.37L1105.71,389l-14-20.66L990.19,437.92ZM693.39,305.23l-18,42.48V298.83C681.47,300.87,687.58,302.91,693.39,305.23Zm-263,25.61L419,302.62c3.78-1.17,7.57-2.62,11.35-3.78Zm-237.73-204,69,102.13L282,215,213,112.9ZM823.75,215l20.37,14,69-102.13-20.37-14ZM650.62,203.39V184.77H455.09v18.62Zm0-43.36V141.12H455.09V160ZM607.85,24.73h-110a44,44,0,0,0-30.26,12.8,42.66,42.66,0,0,0-12.51,30.55v48H650.62v-48a42.66,42.66,0,0,0-12.51-30.55A44,44,0,0,0,607.85,24.73Z"/></g></g></svg>