<svg xmlns="http://www.w3.org/2000/svg" viewBox="0 0 1353 1158.35"><defs><style>.st0{fill:#00b2bc;}</style></defs><title>services_clean06</title><g id="Layer_2" data-name="Layer 2"><g id="Layer_1-2" data-name="Layer 1"><g id="Layer_2-2" data-name="Layer 2"><g id="Layer_1-2-2" data-name="Layer 1-2"><path class="st0" d="M1278.24,514.12l-7.76-5.73v1.41l-82.25-46.46H1004.17V97a97,97,0,0,0-97-97H398.11a97,97,0,0,0-97,97V463.08H53.42A53.42,53.42,0,0,0,0,516.5H0v79.87A53.42,53.42,0,0,0,53.42,649.7H301.14v416.44a92.39,92.39,0,0,0,92.3,92.21H912a92.39,92.39,0,0,0,92.3-92.3V649.61h184.07l84-47.6v.62l1.76-1.59,78.9-44.69ZM580,556.43a93.53,93.53,0,0,0,93.44,93.44h98.47a135.58,135.58,0,1,1-5.05-191.68q2.59,2.46,5.05,5.05H673.06a93.53,93.53,0,0,0-93.44,93.18Zm26.45,0a67.08,67.08,0,0,1,1.41-13.49H1157.3a48.13,48.13,0,0,0,.44,27.06H607.47a67,67,0,0,1-1.41-13.58Zm551.85-40H619.38a66.91,66.91,0,0,1,52.89-27.06h483.88a48.84,48.84,0,0,0-1.23,10.84,50.07,50.07,0,0,0,3,16.22Zm-760.16-490H907.2A70.52,70.52,0,0,1,977.72,97v63.12H327.58V97A70.52,70.52,0,0,1,398.11,26.45ZM147,623.25h-36.5V489.52H147Zm26.45-80.4H301.14v27H173.49Zm127.65-26.45H173.49V489.52H301.14ZM53.42,623.25h0a27,27,0,0,1-27-26.89V516.5a27,27,0,0,1,27-27H84.1V623.25Zm120.07,0V596.37H301.14v26.89ZM912,1131.91H393.43a65.94,65.94,0,0,1-65.85-65.85V970.67H977.81v95.47A65.94,65.94,0,0,1,912,1131.91Zm65.85-187.68H327.58V186.09H977.81v277H805.38a162,162,0,1,0,0,186.62H977.64ZM667.68,623.17a67,67,0,0,1-48.31-26.45h537.74a50,50,0,0,0-2,13.93,52.89,52.89,0,0,0,1.59,12.87Zm516.5-1.76a27.5,27.5,0,0,1-2.56-11.2,24.42,24.42,0,0,1,5.55-15.34,19.13,19.13,0,0,0,0-24.15,24,24,0,0,1,0-30.77,19.13,19.13,0,0,0,0-24.15,24.51,24.51,0,0,1-5.55-15.43,21.77,21.77,0,0,1,2.12-8.82l86.39,48.75V573Z"/><rect class="st0" x="524.61" y="87.36" width="256.09" height="26.45"/><path class="st0" d="M652.35,982.93a69.38,69.38,0,1,0,69.38,69.38,69.38,69.38,0,0,0-69.38-69.38Zm0,112.22a30.36,30.36,0,1,1,.09.09h-.09Z"/><rect class="st0" x="1130.47" y="686.91" width="26.45" height="217.57" transform="translate(-227.66 1041.76) rotate(-45)"/><rect class="st0" x="1034.85" y="300.73" width="217.57" height="26.45" transform="translate(112.96 900.63) rotate(-45)"/><rect class="st0" x="45.34" y="782.49" width="217.57" height="26.45" transform="translate(-517.51 342.04) rotate(-45)"/><rect class="st0" x="140.94" y="205.2" width="26.45" height="217.57" transform="translate(-176.87 200.97) rotate(-45)"/><path class="st0" d="M477.8,496.4l-25.3-7.58a231.14,231.14,0,0,0,2,138.31l25.12-8.29a204.61,204.61,0,0,1-1.76-122.36Z"/><path class="st0" d="M676.41,821.69a269.22,269.22,0,0,1-35.26-2.29l-3.44,26.45a296.82,296.82,0,0,0,38.79,2.56,290.91,290.91,0,0,0,113.81-23L780,801.06A264.46,264.46,0,0,1,676.41,821.69Z"/><path class="st0" d="M928.89,345.39l20.28-16.93A357.64,357.64,0,0,0,815.61,229.2l-10.4,24.33A331,331,0,0,1,928.89,345.39Z"/><path class="st0" d="M452.23,343.8a306.69,306.69,0,0,0-52.89,78l23.8,11.2a280.24,280.24,0,0,1,48.4-71.58Z"/></g></g></g></g></svg>