<svg xmlns="http://www.w3.org/2000/svg" viewBox="0 0 53.87 50"><defs><style>.st0{fill:#00b3bd;}</style></defs><title>services_clean02</title><g id="Layer_2" data-name="Layer 2"><g id="Layer_1-2" data-name="Layer 1"><g id="Layer_2-2" data-name="Layer 2"><g id="Layer_1-2-2" data-name="Layer 1-2"><path class="st0" d="M31.8,6.79a.59.59,0,0,0-.59.59h0v2a.59.59,0,0,0,.58.59h0a.6.6,0,0,0,.59-.59v-2A.6.6,0,0,0,31.8,6.79ZM30.6,2.06H27.45a.59.59,0,0,0,0,1.18H30.6a.61.61,0,0,1,.61.6h0V5a.59.59,0,0,0,.58.59h0a.6.6,0,0,0,.6-.59V3.85A1.79,1.79,0,0,0,30.6,2.06ZM4.05,29.91a.59.59,0,0,0-.46.69h0a20.14,20.14,0,0,0,4.58,9.33,20.24,20.24,0,0,0-4.58,9.35A.59.59,0,0,0,4,50H49.63a.57.57,0,0,0,.45-.22.59.59,0,0,0,.13-.49,20.27,20.27,0,0,0-4.59-9.35,20.16,20.16,0,0,0,4.59-9.33.6.6,0,0,0-.47-.7.59.59,0,0,0-.69.46,18.94,18.94,0,0,1-4.24,8.69,20,20,0,0,0-9.5-5.42l4.16-6.55a.58.58,0,0,0,.07-.45.55.55,0,0,0-.26-.37c-6.64-4.2-5.18-9.34-5.09-9.63H38a.59.59,0,0,0,.58-.59V12.29A.59.59,0,0,0,38,11.7H34.56V3.75A3.75,3.75,0,0,0,30.82,0H23a3.74,3.74,0,0,0-3.73,3.75h0V11.7H15.76a.59.59,0,0,0-.59.59h0V16a.59.59,0,0,0,.58.59H19.6c0,.16,1.58,5.41-5.09,9.63a.59.59,0,0,0-.26.37.55.55,0,0,0,.08.45l4.15,6.55A20,20,0,0,0,9,39.07a19,19,0,0,1-4.24-8.68.58.58,0,0,0-.67-.47h0ZM48.9,48.81H4.9a19.07,19.07,0,0,1,4.08-8,20.06,20.06,0,0,0,14.31,6h7.22a20,20,0,0,0,14.3-6A19.1,19.1,0,0,1,48.9,48.81Zm-22-20.76a2.22,2.22,0,1,1,2.21-2.24h0A2.23,2.23,0,0,1,26.9,28ZM44,39.94a18.88,18.88,0,0,1-13.5,5.73H27.69l6.95-11A18.83,18.83,0,0,1,44,39.93ZM20.42,3.75A2.56,2.56,0,0,1,23,1.19h7.87a2.57,2.57,0,0,1,2.56,2.57V11.7h-13V3.76Zm-4.07,9.13h21.1v2.57H16.35Zm4.46,3.76H33C32.73,18,32.25,22.93,38.18,27L27.49,43.78V29.18a3.39,3.39,0,1,0-1.18,0v14.6L15.63,27C21.56,23,21.08,18,20.81,16.64ZM19.15,34.7l6.95,11H23.29A18.88,18.88,0,0,1,9.78,39.93,18.87,18.87,0,0,1,19.15,34.7ZM3.82,21.19a.6.6,0,0,0,.59-.59V19.29a.6.6,0,0,0-.59-.59.59.59,0,0,0-.59.59h0V20.6a.59.59,0,0,0,.59.59Zm0,5.39A.6.6,0,0,0,4.41,26V24.67a.6.6,0,0,0-.59-.59.59.59,0,0,0-.59.59h0V26a.59.59,0,0,0,.58.59h0Zm2-3.35H7.15a.59.59,0,1,0,0-1.18H5.84a.6.6,0,0,0-.48.7h0a.61.61,0,0,0,.48.49Zm-5.35,0h1.3a.59.59,0,1,0,0-1.18H.49a.6.6,0,0,0-.48.7H0a.61.61,0,0,0,.48.49Zm49.5-2a.6.6,0,0,0,.59-.59V19.29A.6.6,0,0,0,50,18.7a.59.59,0,0,0-.59.59h0V20.6a.59.59,0,0,0,.59.59h0Zm0,5.39a.6.6,0,0,0,.59-.59V24.67a.6.6,0,0,0-.59-.59.59.59,0,0,0-.59.59h0V26a.59.59,0,0,0,.58.59h0Zm2-3.35h1.31a.59.59,0,1,0,0-1.18H52a.59.59,0,1,0,0,1.18Zm-5.35,0H48A.63.63,0,0,0,48,22H46.7a.59.59,0,0,0,0,1.18Z"/></g></g></g></g></svg>