<svg xmlns="http://www.w3.org/2000/svg" viewBox="0 0 153.46 131.4"><defs><style>.st0{fill:#868686;}</style></defs><title>bw-icon11</title><g id="Layer_2" data-name="Layer 2"><g id="Layer_1-2" data-name="Layer 1"><path class="st0" d="M145,58.32l-.88-.65v.16l-9.33-5.27H113.91V11a11,11,0,0,0-11-11H45.16a11,11,0,0,0-11,11V52.53H6.06A6.06,6.06,0,0,0,0,58.59v9.06A6.06,6.06,0,0,0,6.06,73.7h28.1v47.24A10.48,10.48,0,0,0,44.63,131.4h58.82a10.48,10.48,0,0,0,10.47-10.47V73.69h20.88l9.53-5.4v.07l.2-.18,8.95-5.07Zm-79.21,4.8a10.61,10.61,0,0,0,10.6,10.6l1.44,0h9.73a15.38,15.38,0,1,1,0-21.17H76.35A10.61,10.61,0,0,0,65.75,63.12Zm3,0a7.61,7.61,0,0,1,.16-1.53h62.33a5.46,5.46,0,0,0,.05,3.07H68.91A7.6,7.6,0,0,1,68.75,63.12Zm62.6-4.54H70.26a7.59,7.59,0,0,1,6-3.07l.23,0h54.66a5.54,5.54,0,0,0-.14,1.23A5.68,5.68,0,0,0,131.35,58.58ZM45.16,3h57.75a8,8,0,0,1,8,8v7.16H37.16V11A8,8,0,0,1,45.16,3ZM16.68,70.7H12.54V55.53h4.14Zm3-9.12H34.16v3.06H19.68Zm14.48-3H19.68V55.53H34.16ZM6.06,70.7h0A3.06,3.06,0,0,1,3,67.65V58.59a3.06,3.06,0,0,1,3.06-3.06H9.54V70.7Zm13.62,0V67.65H34.16V70.7Zm83.77,57.7H44.63a7.48,7.48,0,0,1-7.47-7.47V110.11h73.76v10.83A7.48,7.48,0,0,1,103.45,128.4Zm7.47-21.29H37.16v-86h73.76V52.53H91.36a18.38,18.38,0,1,0,0,21.17h19.54ZM75.74,70.69a7.6,7.6,0,0,1-5.48-3h61a5.67,5.67,0,0,0-.23,1.58,6,6,0,0,0,.18,1.46Zm58.59-.2a3.12,3.12,0,0,1-.29-1.27,2.77,2.77,0,0,1,.63-1.74,2.17,2.17,0,0,0,0-2.74,2.72,2.72,0,0,1,0-3.49,2.17,2.17,0,0,0,0-2.74,2.78,2.78,0,0,1-.63-1.75,2.47,2.47,0,0,1,.24-1l9.8,5.53V65Z"/><rect class="st0" x="59.51" y="9.91" width="29.05" height="3"/><path class="st0" d="M74,111.5a7.87,7.87,0,1,0,7.87,7.87A7.87,7.87,0,0,0,74,111.5Zm0,12.73a4.87,4.87,0,1,1,4.87-4.87A4.87,4.87,0,0,1,74,124.24Z"/><rect class="st0" x="128.23" y="77.92" width="3" height="24.68" transform="translate(-25.82 118.17) rotate(-45)"/><rect class="st0" x="117.39" y="34.12" width="24.68" height="3" transform="translate(12.81 102.16) rotate(-45)"/><rect class="st0" x="5.14" y="88.76" width="24.68" height="3" transform="translate(-58.7 38.8) rotate(-45)"/><rect class="st0" x="15.98" y="23.28" width="3" height="24.68" transform="translate(-20.06 22.79) rotate(-45)"/><path class="st0" d="M54.2,56.31l-2.87-.86a26.22,26.22,0,0,0,.23,15.69l2.85-.94a23.21,23.21,0,0,1-.2-13.88Z"/><path class="st0" d="M76.73,93.21a30.54,30.54,0,0,1-4-.26l-.39,3a33.67,33.67,0,0,0,4.4.29,33,33,0,0,0,12.91-2.61l-1.17-2.76A30,30,0,0,1,76.73,93.21Z"/><path class="st0" d="M105.37,39.18l2.3-1.92A40.57,40.57,0,0,0,92.52,26l-1.18,2.76A37.55,37.55,0,0,1,105.37,39.18Z"/><path class="st0" d="M51.3,39a34.79,34.79,0,0,0-6,8.85L48,49.12A31.79,31.79,0,0,1,53.49,41Z"/></g></g></svg>