<svg xmlns="http://www.w3.org/2000/svg" viewBox="0 0 47.52 42.87"><defs><style>.cls-1{fill:#303136;stroke:#fff;stroke-miterlimit:10;stroke-width:0.85px;}</style></defs><title>cart</title><g id="Layer_2" data-name="Layer 2"><g id="Isolation_Mode" data-name="Isolation Mode"><path class="cls-1" d="M46.09,6.45h-37a1,1,0,0,0-.21,0l-1.5-5a1,1,0,0,0-.08-.14,1,1,0,0,0-1-.92h0l-4.9,0a1,1,0,0,0,0,2h0l4.15,0L15.15,34.2a4.75,4.75,0,1,0,7.53,1.58H36.5a4.74,4.74,0,1,0,1.66-2H21a4.59,4.59,0,0,0-4.09-.6L15.5,28.44l25.19,0a1,1,0,0,0,.94-.69.93.93,0,0,0,.09-.2L47.06,7.87a1,1,0,0,0,0-.37s0,0,0-.06A1,1,0,0,0,46.09,6.45Zm-5.25,28.5a2.75,2.75,0,1,1-2.75,2.75A2.75,2.75,0,0,1,40.84,34.95Zm-22.5,0a2.75,2.75,0,1,1-2.75,2.75A2.75,2.75,0,0,1,18.34,34.95ZM40,26.43l-25.05,0-5.42-18H44.83Z"/></g></g></svg>