<svg xmlns="http://www.w3.org/2000/svg" viewBox="0 0 49.84 49.84"><title>check-icon</title><g id="Layer_2" data-name="Layer 2"><g id="Layer_1-2" data-name="Layer 1"><path class="st0" d="M24.82,31.21,14.28,20.67a1.12,1.12,0,0,0-.8-.34,1.14,1.14,0,0,0-1.14,1.14h0a1.16,1.16,0,0,0,.33.81L24,33.64a1.14,1.14,0,0,0,1.61,0h0l19-19.88h0L46.26,12h0l3.27-3.42h0a1.15,1.15,0,0,0,.32-.79A1.13,1.13,0,0,0,48.7,6.7a1.15,1.15,0,0,0-.82.35h0L45,10.11h0l-1.59,1.66s0,0,0,0Zm23-15.91A1.13,1.13,0,0,0,46,16.48h0a22.75,22.75,0,1,1-4.76-7.38h0a1.13,1.13,0,0,0,1.55-1.65l-.14-.09a24.92,24.92,0,1,0,5.5,8.42,1.14,1.14,0,0,0-.28-.48Z"/></g></g></svg>