<svg xmlns="http://www.w3.org/2000/svg" viewBox="0 0 33 25"><title>email-icon</title><g id="Layer_2" data-name="Layer 2"><g id="Layer_1-2" data-name="Layer 1"><path class="st0" d="M24,5.88H3A3,3,0,0,0,0,8.82V22.06A3,3,0,0,0,3,25H24a3,3,0,0,0,3-2.94V8.82A3,3,0,0,0,24,5.88ZM3,7.35H24a1.5,1.5,0,0,1,1,.36L14.52,18a1.46,1.46,0,0,1-2,0L2,7.71A1.51,1.51,0,0,1,3,7.35ZM1.5,9.28l6.29,6.16L1.5,21.61V9.28ZM24,23.53H3a1.5,1.5,0,0,1-1-.36l6.82-6.69L11.42,19a3,3,0,0,0,4.15,0l2.58-2.53L25,23.17A1.5,1.5,0,0,1,24,23.53Zm1.5-1.92-6.29-6.16L25.5,9.28ZM30,0H9A3,3,0,0,0,6,2.94v.73a.75.75,0,1,0,1.5,0V2.94A1.48,1.48,0,0,1,9,1.47H30a1.48,1.48,0,0,1,1.5,1.47h0V16.18A1.49,1.49,0,0,1,30,17.65h-.75a.74.74,0,1,0-.05,1.47H30a3,3,0,0,0,3-2.94h0V2.94A3,3,0,0,0,30,0Z"/></g></g></svg>