<svg xmlns="http://www.w3.org/2000/svg" viewBox="0 0 19.99 20"><defs><style>.cls-1{fill:#fff;}</style></defs><title>expand-icon</title><g id="Layer_2" data-name="Layer 2"><g id="Layer_1-2" data-name="Layer 1"><path class="cls-1" d="M19.54,0H13.17a.46.46,0,0,0,0,.91h5.26L11,8.32a.45.45,0,0,0,.32.78A.45.45,0,0,0,11.68,9l7.4-7.41V6.82a.46.46,0,0,0,.91,0s0,0,0,0V.45A.45.45,0,0,0,19.54,0ZM8.63,10.91a.45.45,0,0,0-.32.13L.91,18.45V13.18a.45.45,0,0,0-.91,0v6.37A.45.45,0,0,0,.45,20H6.82a.46.46,0,0,0,0-.91H1.55L9,11.69a.45.45,0,0,0-.32-.78Z"/></g></g></svg>