<svg xmlns="http://www.w3.org/2000/svg" viewBox="0 0 15.01 13"><defs><style>.cls-1{fill:#fff;}</style></defs><title>heart-icon</title><g id="Layer_2" data-name="Layer 2"><g id="Layer_1-2" data-name="Layer 1"><path id="icon" class="cls-1" d="M7.5,13,1.17,6.73a3.92,3.92,0,0,1,0-5.55l0,0a4,4,0,0,1,5.64,0l.7.69.7-.69a4,4,0,0,1,5.64,0,3.92,3.92,0,0,1,0,5.54l0,0ZM4,.57a3.4,3.4,0,0,0-2.41,1,3.35,3.35,0,0,0,0,4.74l0,0L7.5,12.19l5.93-5.86a3.35,3.35,0,0,0,0-4.73l0,0a3.43,3.43,0,0,0-4.82,0L7.5,2.65,6.4,1.56A3.4,3.4,0,0,0,4,.57Z"/></g></g></svg>