<svg xmlns="http://www.w3.org/2000/svg" viewBox="0 0 50 50"><defs><style>.st0{fill:#fff;}</style></defs><title>house-icon</title><g id="Layer_2" data-name="Layer 2"><g id="Layer_1-2" data-name="Layer 1"><path class="st0" d="M49.67,24.2l-8.76-8.76v-12a1.14,1.14,0,0,0-1.14-1.14H33a1.14,1.14,0,0,0-1.13,1.14V6.35l-6-6a1.13,1.13,0,0,0-1.59,0h0L.33,24.2A1.16,1.16,0,0,0,0,25a1.14,1.14,0,0,0,1.94.8l4.88-4.88V48.86A1.13,1.13,0,0,0,7.95,50H42a1.13,1.13,0,0,0,1.13-1.14V20.93l4.88,4.88A1.14,1.14,0,0,0,50,25,1.16,1.16,0,0,0,49.67,24.2ZM34.09,4.55h4.55v8.62L34.09,8.62ZM18.18,47.73H9.09V45.46h9.09Zm11.37,0h-9.1V29.55h9.1V47.73Zm11.36,0H31.82V45.46h9.09Zm0-4.55H31.82V28.41a1.14,1.14,0,0,0-1.14-1.14H19.32a1.14,1.14,0,0,0-1.14,1.14h0V43.18H9.09V18.65L25,2.74,40.91,18.65V43.18ZM26.14,40.91A1.14,1.14,0,1,0,25,39.78a1.14,1.14,0,0,0,1.14,1.14h0Z"/></g></g></svg>