<svg xmlns="http://www.w3.org/2000/svg" viewBox="0 0 70 70"><title>icon4</title><g id="Layer_2" data-name="Layer 2"><g id="Layer_1-2" data-name="Layer 1"><path class="st0" d="M23.4,41.83a1.59,1.59,0,0,0-2.25,2.25L33.88,56.81a1.61,1.61,0,0,0,2.25,0L48.85,44.08a1.59,1.59,0,1,0-2.25-2.25l-10,10V1.59a1.59,1.59,0,0,0-3.18,0V51.84ZM70,68.41V11.14a1.59,1.59,0,0,0-1.59-1.59H44.54a1.59,1.59,0,1,0,0,3.18H66.82V66.82H3.18V12.73H25.45a1.59,1.59,0,1,0,0-3.18H1.59A1.59,1.59,0,0,0,0,11.14H0V68.41A1.59,1.59,0,0,0,1.59,70H68.41A1.59,1.59,0,0,0,70,68.41Z"/></g></g></svg>