<svg xmlns="http://www.w3.org/2000/svg" viewBox="0 0 47 49.96"><title>icon1</title><g id="Layer_2" data-name="Layer 2"><g id="Layer_1-2" data-name="Layer 1"><path class="st0" d="M46.5,7.56H45.32V7.25a.51.51,0,0,0-.5-.51H44.7l0-1a.5.5,0,0,0-.14-.37.51.51,0,0,0-.36-.16H43.09V3.41a3.41,3.41,0,0,0-6.82,0V5.25H35.12a.51.51,0,0,0-.36.16.5.5,0,0,0-.14.37l0,1h-.12a.51.51,0,0,0-.5.51V9.2a.5.5,0,0,0,.49.51h.25l.83,19.75a.5.5,0,0,0,.5.49h.09v4.86H35a.51.51,0,0,0-.5.51V36.9a.51.51,0,0,0,.5.51h1.4c.09.54.14,2.18-2.06,3.58a.51.51,0,0,0-.22.32.53.53,0,0,0,.07.39l5.06,8h0l.07.09h0l.07.05,0,0a.12.12,0,0,0,.08,0h0a.35.35,0,0,0,.23,0h0a.12.12,0,0,0,.08,0l0,0,.07-.05h0l.07-.09h0l5.06-8a.53.53,0,0,0,.07-.39A.51.51,0,0,0,45,41c-2.2-1.4-2.15-3-2.06-3.58h1.4a.51.51,0,0,0,.5-.51V35.32a.51.51,0,0,0-.5-.51h-1.2V30h.09a.5.5,0,0,0,.5-.49l.83-19.75h.24a.5.5,0,0,0,.5-.5h0V8.58h.65l-.64,12.8L45.19,21a.51.51,0,1,0-1,.3l.12.4L44,22.78a.53.53,0,0,0,.07.45.47.47,0,0,0,.39.21l1.23.07h0a.52.52,0,0,0,.34-.13.52.52,0,0,0,.17-.36L47,8.1a.51.51,0,0,0-.14-.38A.51.51,0,0,0,46.5,7.56Zm-10.79.2h7.94l0,.93H35.75Zm1.57-4.35a2.4,2.4,0,0,1,4.8,0h0V5.25h-4.8ZM35.65,6.27h8.06l0,.47h-8ZM37.22,30h2v4.86h-2ZM39.68,41.7a.68.68,0,1,1,.67-.68h0a.67.67,0,0,1-.67.67h0ZM44,41.57,40.18,47.7V42.64a1.68,1.68,0,1,0-1,0V47.7l-3.86-6.13a4.48,4.48,0,0,0,2.12-4.16h4.49A4.48,4.48,0,0,0,44,41.57Zm-.21-5.18H35.51v-.56h8.33Zm-1.71-1.58h-2V30h2v4.86Zm.62-5.88H36.6L35.79,9.71h7.77Zm2.52-6.47H45.2l.08-.28ZM3.09,47.51H25.52a3.11,3.11,0,0,0,3.09-3.12V5.53A3.12,3.12,0,0,0,25.52,2.4H3.09A3.12,3.12,0,0,0,0,5.53V44.39a3.11,3.11,0,0,0,3.09,3.12ZM1,5.53a2.09,2.09,0,0,1,2.08-2.1H25.52a2.09,2.09,0,0,1,2.08,2.1V44.39a2.09,2.09,0,0,1-2.08,2.1H3.09A2.09,2.09,0,0,1,1,44.39V5.53Zm8.19.41H19.41a.51.51,0,0,0,0-1H9.2a.51.51,0,0,0,0,1ZM2,41.23H26.59a.51.51,0,0,0,.51-.51v-33a.51.51,0,0,0-.51-.51H2a.51.51,0,0,0-.51.51v33a.51.51,0,0,0,.51.51Zm.51-33H26.09V40.21H2.52V8.27ZM14.31,41.4a2.46,2.46,0,1,0,2.44,2.48v0a2.45,2.45,0,0,0-2.44-2.46h0Zm0,3.9a1.44,1.44,0,1,1,1.43-1.45h0a1.43,1.43,0,0,1-1.42,1.44h0Zm0-29.59a9.25,9.25,0,1,0,9.14,9.35V25a9.21,9.21,0,0,0-9.15-9.25ZM9.21,31.36A2.56,2.56,0,0,1,11.14,29a2.62,2.62,0,0,0,.62-.26,2.88,2.88,0,0,0,.64,1.19,2.76,2.76,0,0,0,3.81,0,2.87,2.87,0,0,0,.64-1.19,2.6,2.6,0,0,0,.62.26,2.56,2.56,0,0,1,1.93,2.41,8,8,0,0,1-10.19,0Zm3.59-4h0a2.87,2.87,0,0,0,1.48.41h0a2.87,2.87,0,0,0,1.48-.41h0a2.08,2.08,0,0,0,.17.41,2.32,2.32,0,0,1-.51,1.42,1.76,1.76,0,0,1-2.33,0,2.32,2.32,0,0,1-.51-1.42,2.08,2.08,0,0,0,.18-.41Zm4-.38c0-.16-.08-.31-.1-.41a2.93,2.93,0,0,0,.58-1.74V22.51L16.9,22a3.52,3.52,0,0,1-2.09-3.39,2.94,2.94,0,0,1,1.67.85,3.06,3.06,0,0,1,.88,2.17,14.13,14.13,0,0,0,.7,5.13,5.15,5.15,0,0,1-1.31.18Zm-.53-4.12v2a1.91,1.91,0,0,1-1.89,1.91h0a1.91,1.91,0,0,1-1.89-1.91v-2a4,4,0,0,0,1.91-2,4,4,0,0,0,1.91,2ZM11.71,22l-.33.48v2.31A2.93,2.93,0,0,0,12,26.56a4.21,4.21,0,0,1-.1.41,5.14,5.14,0,0,1-1.31-.18,14.13,14.13,0,0,0,.7-5.13,3.06,3.06,0,0,1,.88-2.17,2.94,2.94,0,0,1,1.67-.85A3.52,3.52,0,0,1,11.71,22Zm8.58,8.48A3.56,3.56,0,0,0,17.71,28l-.08,0A5.93,5.93,0,0,0,19,27.55l.23-.73a11.22,11.22,0,0,1-.83-5.15,4.08,4.08,0,0,0-1.18-2.9,3.93,3.93,0,0,0-2.83-1.19h0l0,0,0,0h0a3.94,3.94,0,0,0-2.83,1.19,4.08,4.08,0,0,0-1.18,2.9,11.22,11.22,0,0,1-.83,5.15l.23.73a5.94,5.94,0,0,0,1.35.38l-.08,0a3.56,3.56,0,0,0-2.58,2.55,8.13,8.13,0,1,1,12,0Z"/></g></g></svg>