<svg xmlns="http://www.w3.org/2000/svg" viewBox="0 0 146.78 120.51"><defs><style>.cls-1{fill:#00b3be;}</style></defs><title>icon14</title><g id="Layer_2" data-name="Layer 2"><g id="Layer_1-2" data-name="Layer 1"><path class="cls-1" d="M15.23,9.39a14.16,14.16,0,0,1,3,2.2l2.09-2.15a17.16,17.16,0,0,0-3.59-2.67Z"/><path class="cls-1" d="M23.55,13.79l-2.64,1.42a21.56,21.56,0,0,1,2.34,8.36l3-.26A24.51,24.51,0,0,0,23.55,13.79Z"/><path class="cls-1" d="M26.08,27.94,23.29,29c2.3,5.82,7.82,9.16,16.87,10.21l.34-3C30,35.06,27.27,30.93,26.08,27.94Z"/><path class="cls-1" d="M126.87,19.58l.17,1a4.29,4.29,0,1,1-1.72-2.75l.82.58L144.45,6.93h0l-1.59-2.54C138.29,7.25,117.62,6.67,110,6.21l-1.32-.08-.24,1.3a72.89,72.89,0,0,1-2.65,10,4.31,4.31,0,0,0-4.8-.15l-3.14,2A4.28,4.28,0,0,0,96,22l-18.2,11-6.11-3.9,0,0-1.31-.8h0l-9.61-5.9a25.34,25.34,0,0,0-10.12-15C40.33-.09,24.49-1.92,3.52,2L0,2.68l2.93,2c.14.1,13.74,9.67,14.12,18.78.32,7.57,3.25,13.89,8.26,17.79a22,22,0,0,0,13.83,4.4,33.83,33.83,0,0,0,6.31-.63L55,50.91h0l9.35,5.81,0,39.28v.5l13.6,24,6-10.6.29-.4h-.07l7.39-13.08V96l0-39.27,19.68-12a4.27,4.27,0,0,0,3.25-.55l3.14-2a4.22,4.22,0,0,0,2-4,56.89,56.89,0,0,1,9.33,2l1.31.41.52-1.27c2.88-7,11.36-25.83,16-28.72h0L145.19,8.1Zm-49.15,17L96.52,25.2c0,.06.06.12.1.18l2.75,4L77.76,42.54l-10.69-6.7,2.88-4.19Zm2.79,56a7.35,7.35,0,0,0-5.1.12v-42l-13-8.15,2.92-4.25,12.37,7.75,23.32-14.19,3,4.37L80.5,50.71ZM27.16,38.94c-4.3-3.35-6.82-8.88-7.11-15.56C19.72,15.53,11.76,8,7.41,4.38c18.41-3,32.3-1.15,41.34,5.44a22.68,22.68,0,0,1,9,13.21L44.86,42.13C37.7,43.49,31.59,42.39,27.16,38.94ZM59.81,25.39l7.59,4.67L55.35,47.62,47.87,43Zm-1.9,23.8L60.75,45l11.67,7.33V92.64a7.47,7.47,0,0,0-5.05-.1l0-37.49Zm17.27,60.32L67.42,95.81a4.48,4.48,0,0,1,5,.28,2.39,2.39,0,0,0,3,0,4.23,4.23,0,0,1,5.29,0,2.39,2.39,0,0,0,3,0,4.08,4.08,0,0,1,4.73-.35l-7.77,13.77ZM88.58,55l0,37.43a7.09,7.09,0,0,0-5.05.3V52.39l22.26-13.66,2.81,4.11ZM116.65,38.8a1.31,1.31,0,0,1-.59.85l-3.14,2a1.36,1.36,0,0,1-1.8-.37l-12-17.55a1.33,1.33,0,0,1,.39-1.87l3.14-2a1.32,1.32,0,0,1,1.8.38l12,17.55A1.32,1.32,0,0,1,116.65,38.8ZM128.56,37a61.79,61.79,0,0,0-10.39-2L108.05,20.22a76.27,76.27,0,0,0,3.12-10.93c4.13.22,15.52.69,24.12-.16l-9.13,5.71a7.29,7.29,0,1,0,3.92,6.26l9.11-5.7C134.69,22.73,130.18,33.13,128.56,37Z"/></g></g></svg>