<svg xmlns="http://www.w3.org/2000/svg" viewBox="0 0 51 53"><title>icon8</title><g id="Layer_2" data-name="Layer 2"><g id="Layer_1-2" data-name="Layer 1"><path class="st0" d="M31.14,42.92V40.85H48.57V29.92h-4a19.06,19.06,0,0,0-13.4-17.51V3.1A3.07,3.07,0,0,0,30.24.91,3.11,3.11,0,0,0,28,0H23a3.11,3.11,0,0,0-2.21.91,3.06,3.06,0,0,0-.91,2.19v9.32A19.06,19.06,0,0,0,6.45,29.92h-4V40.85H19.85v2.26L25.5,53,28,48.68,28,48.6h0l3.14-5.52v-.16ZM30,41.53a2.9,2.9,0,0,0-2.23.14v-.82H30v.68Zm-5.63-.68h2.25v.73a3.08,3.08,0,0,0-2.25.05ZM32,13.9l-.83,1.94V13.6l.83.3Zm-12.13,16H16.34a9,9,0,0,1,3.51-6.61v6.61Zm1.14,0V10.39h2.24V29.92H21ZM30,7.29H21V6.43h9v.86Zm0,1.13v.84H21V8.42Zm-5.63,2h2.25V29.92H24.37Zm3.39,19.53V10.39H30V29.92H27.77Zm3.38-6.61a9.06,9.06,0,0,1,3.51,6.61H31.14ZM21.57,1.71A2,2,0,0,1,23,1.14H28a2,2,0,0,1,1.4.58A1.94,1.94,0,0,1,30,3.1V5.3H21V3.1a1.94,1.94,0,0,1,.58-1.39ZM19.85,15.07l-.52-1.28.52-.18v1.47Zm-16.28,16h4v-.57a17.46,17.46,0,0,1,.27-3l2,.41.23-1.11-2-.41a17.48,17.48,0,0,1,.73-2.28l3.77,1.59.45-1L9.26,23a18.37,18.37,0,0,1,1-1.89L12,22.23l.63-.94-1.67-1.1a16.68,16.68,0,0,1,1.52-1.86l2.89,2.87.81-.8-2.89-2.87A17.57,17.57,0,0,1,15.18,16l1.11,1.68,1-.63-1.11-1.67a17.82,17.82,0,0,1,2.14-1.12L19.8,18l0,0v4a10.17,10.17,0,0,0-4.67,8.56v.57H35.82v-.57a10.2,10.2,0,0,0-4.67-8.57V18l.28.12L33,14.35a18.18,18.18,0,0,1,1.9,1L33.8,17.05l1,.62L35.87,16a18,18,0,0,1,1.86,1.53l-2.89,2.86.81.81,2.89-2.87a18,18,0,0,1,1.57,1.92l-1.67,1.1.63.94,1.68-1.09a17.91,17.91,0,0,1,1.12,2.11l-3.79,1.52.43,1,3.79-1.52a17.56,17.56,0,0,1,.63,2.06l-2,.4.23,1.11,2-.4a17.43,17.43,0,0,1,.25,3v.57h4v8.67H46.18V37.79H45v1.93H43.3V35.63H42.16v4.09H40.41V37.79H39.27v1.93H37.53V35.63H36.39v4.09H34.64V37.79H33.5v1.93H31.76V35.63H30.61v4.09H28.87V37.79H27.73v1.93H26V35.63H24.84v4.09H23.1V37.79H22v1.93H20.21V35.63H19.07v4.09H17.33V37.79H16.19v1.93H14.44V35.63H13.3v4.09H11.56V37.79H10.41v1.93H8.67V35.63H7.53v4.09H5.78V37.79H4.64v1.93H3.57V31.05Zm19.66,9.8v.76A3.12,3.12,0,0,0,21,41.56v-.71ZM24.3,48.6,21,42.82a2,2,0,0,1,1.08-.32,1.8,1.8,0,0,1,1.14.41,1,1,0,0,0,1.19,0,1.85,1.85,0,0,1,2.29,0,1,1,0,0,0,1.19,0,1.77,1.77,0,0,1,2.1-.12L26.7,48.6H24.3Zm-19-28.67L.64,16.78,0,17.72l4.68,3.15ZM8.88,5.78l3.18,4.65L13,9.79,9.83,5.14Zm37.43,15.1L51,17.73l-.64-.94-4.68,3.15ZM38,9.8l.95.64,3.18-4.65-.95-.64Z"/></g></g></svg>