<svg xmlns="http://www.w3.org/2000/svg" viewBox="0 0 50 50"><title>icon2</title><g id="Layer_2" data-name="Layer 2"><g id="Layer_1-2" data-name="Layer 1"><path class="st0" d="M25,36.67A11.67,11.67,0,1,0,13.33,25h0A11.69,11.69,0,0,0,25,36.67ZM25,14.5A10.5,10.5,0,1,1,14.5,25h0A10.51,10.51,0,0,1,25,14.5Zm0,16.63A6.14,6.14,0,0,0,31.13,25,6.29,6.29,0,0,0,31,24a2.67,2.67,0,1,0-3-4.39l-.06,0A6.13,6.13,0,1,0,25,31.13Zm4.5-10.84a1.5,1.5,0,1,1-1.5,1.5A1.5,1.5,0,0,1,29.5,20.29ZM25,20a4.93,4.93,0,0,1,2.14.49,2.67,2.67,0,0,0,2.36,3.93,2,2,0,0,0,.42,0A5.28,5.28,0,0,1,30,25a5,5,0,1,1-5-5ZM1.63,26.63A1.63,1.63,0,1,0,0,25,1.63,1.63,0,0,0,1.63,26.63Zm0-2.09a.46.46,0,1,1-.46.46h0A.46.46,0,0,1,1.63,24.54ZM46.74,25a1.63,1.63,0,1,0,1.63-1.63h0A1.63,1.63,0,0,0,46.74,25Zm1.63-.46a.46.46,0,1,1-.46.46h0A.46.46,0,0,1,48.37,24.54ZM25,3.26a1.63,1.63,0,1,0-1.63-1.63A1.63,1.63,0,0,0,25,3.26Zm0-2.09a.46.46,0,1,1-.46.46h0A.46.46,0,0,1,25,1.17Zm1.63,47.2A1.63,1.63,0,1,0,25,50h0A1.63,1.63,0,0,0,26.63,48.37Zm-2.09,0a.46.46,0,1,1,.46.46A.46.46,0,0,1,24.54,48.37ZM8.47,10.11a1.61,1.61,0,0,0,1.15-.48,1.63,1.63,0,0,0-2.3-2.32h0a1.64,1.64,0,0,0,0,2.31A1.62,1.62,0,0,0,8.47,10.11Zm-.32-2a.47.47,0,0,1,.65,0,.46.46,0,0,1,0,.65.47.47,0,0,1-.65,0A.46.46,0,0,1,8.15,8.15ZM41.52,39.89a1.62,1.62,0,0,0-1.15.48,1.63,1.63,0,1,0,2.31,0A1.61,1.61,0,0,0,41.52,39.89Zm.32,2a.47.47,0,0,1-.65,0,.46.46,0,0,1,0-.65.47.47,0,0,1,.65,0,.56.56,0,0,1,0,.65Zm-.32-31.74a1.61,1.61,0,0,0,1.15-.48,1.63,1.63,0,0,0-2.3-2.32h0a1.64,1.64,0,0,0,0,2.31A1.62,1.62,0,0,0,41.52,10.11Zm-.32-2a.47.47,0,0,1,.65,0,.46.46,0,0,1,0,.65.47.47,0,0,1-.65,0,.46.46,0,0,1,0-.65ZM7.32,40.37a1.63,1.63,0,1,0,2.31,0,1.64,1.64,0,0,0-2.31,0h0ZM8.8,41.85a.47.47,0,0,1-.65,0,.46.46,0,0,1,0-.65.46.46,0,0,1,.65.65ZM3.41,32.31a1.66,1.66,0,0,0-.62.12,1.63,1.63,0,0,0,.62,3.14A1.66,1.66,0,0,0,4,35.45a1.62,1.62,0,0,0,.88-.89,1.6,1.6,0,0,0,0-1.24,1.63,1.63,0,0,0-1.51-1Zm.42,1.81a.43.43,0,0,1-.25.24.46.46,0,1,1-.35-.84.36.36,0,0,1,.17,0,.45.45,0,0,1,.42.29.46.46,0,0,1,0,.35ZM46.59,17.69a1.5,1.5,0,0,0,.62-.13,1.63,1.63,0,0,0-.62-3.13,1.66,1.66,0,0,0-.62.12,1.63,1.63,0,0,0,.62,3.14Zm-.17-2.05a.36.36,0,0,1,.17,0,.46.46,0,1,1-.42.63.45.45,0,0,1,.24-.59h0ZM16.06,5a1.5,1.5,0,0,0,.62-.13A1.6,1.6,0,0,0,17.56,4a1.63,1.63,0,0,0-1.51-2.25,1.66,1.66,0,0,0-.62.12A1.63,1.63,0,0,0,16.06,5Zm-.42-1.81A.43.43,0,0,1,15.88,3a.36.36,0,0,1,.17,0,.46.46,0,0,1,.42.63.44.44,0,0,1-.25.25.46.46,0,0,1-.6-.6Zm19.81,44a1.6,1.6,0,0,0,0-1.24,1.63,1.63,0,0,0-1.51-1,1.67,1.67,0,0,0-.62.12,1.62,1.62,0,0,0-.88.89,1.63,1.63,0,0,0,1.51,2.25,1.66,1.66,0,0,0,.62-.12,1.62,1.62,0,0,0,.88-.89Zm-1.08-.44a.43.43,0,0,1-.25.24.45.45,0,0,1-.6-.59.42.42,0,0,1,.25-.25.36.36,0,0,1,.17,0,.46.46,0,0,1,.43.64ZM2.79,17.56a1.68,1.68,0,0,0,.62.13A1.63,1.63,0,0,0,4,14.55a1.68,1.68,0,0,0-.62-.13,1.63,1.63,0,0,0-.62,3.14ZM3,15.88a.46.46,0,0,1,.42-.28.52.52,0,0,1,.17,0,.46.46,0,0,1,.25.6A.46.46,0,1,1,3,15.88ZM46,35.45a1.67,1.67,0,0,0,.62.12,1.63,1.63,0,0,0,.63-3.13,1.68,1.68,0,0,0-.62-.13A1.63,1.63,0,0,0,46,35.45Zm.2-1.68a.46.46,0,0,1,.42-.28.52.52,0,0,1,.17,0,.48.48,0,0,1,.25.25.45.45,0,0,1,0,.35.47.47,0,0,1-.6.25.48.48,0,0,1-.25-.25.45.45,0,0,1,0-.35ZM33.32,4.92a1.67,1.67,0,0,0,.62.12,1.63,1.63,0,0,0,.63-3.14,1.67,1.67,0,0,0-.62-.12,1.62,1.62,0,0,0-1.51,1,1.6,1.6,0,0,0,0,1.24,1.62,1.62,0,0,0,.89.89Zm.2-1.69a.46.46,0,0,1,.42-.28.36.36,0,0,1,.17,0,.43.43,0,0,1,.25.24.45.45,0,0,1,0,.35.46.46,0,0,1-.6.25h0a.42.42,0,0,1-.25-.25.45.45,0,0,1,0-.35ZM16.67,45.08A1.66,1.66,0,0,0,16,45a1.63,1.63,0,0,0-.62,3.14,1.67,1.67,0,0,0,.62.12,1.63,1.63,0,0,0,.63-3.14Zm-.2,1.68a.46.46,0,0,1-.6.25h0a.42.42,0,0,1-.25-.25.46.46,0,0,1,.42-.63.36.36,0,0,1,.17,0,.43.43,0,0,1,.25.24.45.45,0,0,1,0,.35ZM7.6,26.44l2.69,1.15a.41.41,0,0,1,.23.29.38.38,0,0,1-.1.35l-2,2.09A1.57,1.57,0,0,0,9.48,33l2.93,0a.39.39,0,0,1,.32.17.41.41,0,0,1,0,.37l-1.09,2.72a1.52,1.52,0,0,0,.15,1.45,1.58,1.58,0,0,0,1.89.59l2.72-1.09a.39.39,0,0,1,.54.36l0,2.92a1.57,1.57,0,0,0,2.66,1.11l2.09-2.05a.4.4,0,0,1,.27-.11.39.39,0,0,1,.36.24l1.15,2.69a1.57,1.57,0,0,0,2.88,0l1.15-2.69a.39.39,0,0,1,.37-.24.39.39,0,0,1,.27.11l2.09,2.05A1.56,1.56,0,0,0,33,40.51l0-2.92a.39.39,0,0,1,.54-.36l2.72,1.09a1.58,1.58,0,0,0,1.89-.59,1.53,1.53,0,0,0,.15-1.45l-1.09-2.72a.41.41,0,0,1,0-.37.39.39,0,0,1,.32-.17l2.93,0a1.57,1.57,0,0,0,1.1-2.67l-2-2.09a.38.38,0,0,1-.1-.35.41.41,0,0,1,.23-.29l2.69-1.15a1.57,1.57,0,0,0,0-2.88l-2.69-1.15a.41.41,0,0,1-.23-.29.38.38,0,0,1,.1-.35l2-2.09A1.57,1.57,0,0,0,40.51,17l-2.93,0a.39.39,0,0,1-.32-.17.41.41,0,0,1,0-.37l1.09-2.72a1.55,1.55,0,0,0-.15-1.46,1.59,1.59,0,0,0-1.89-.58l-2.72,1.09a.39.39,0,0,1-.54-.36l0-2.93a1.57,1.57,0,0,0-2.66-1.1l-2.09,2.05a.39.39,0,0,1-.27.11.39.39,0,0,1-.37-.24L26.43,7.61a1.57,1.57,0,0,0-2.88,0L22.4,10.3a.39.39,0,0,1-.36.24.4.4,0,0,1-.27-.11L19.67,8.38A1.56,1.56,0,0,0,17,9.48l0,2.93a.39.39,0,0,1-.54.36l-2.72-1.09a1.59,1.59,0,0,0-1.89.58,1.55,1.55,0,0,0-.15,1.46l1.09,2.72a.41.41,0,0,1,0,.37.39.39,0,0,1-.32.17L9.48,17a1.57,1.57,0,0,0-1.1,2.67l2,2.09a.38.38,0,0,1,.1.35.41.41,0,0,1-.23.29L7.6,23.56a1.57,1.57,0,0,0,0,2.88Zm.46-1.8,2.69-1.15a1.58,1.58,0,0,0,.92-1.14,1.56,1.56,0,0,0-.42-1.4l-2-2.09a.39.39,0,0,1-.08-.43.38.38,0,0,1,.36-.24l2.93,0a1.55,1.55,0,0,0,1.28-.69A1.58,1.58,0,0,0,13.86,16l-1.09-2.72a.37.37,0,0,1,0-.36.4.4,0,0,1,.48-.15L16,13.86a1.49,1.49,0,0,0,.59.12,1.58,1.58,0,0,0,1.57-1.56l0-2.92a.4.4,0,0,1,.4-.39.36.36,0,0,1,.27.11l2.09,2.05a1.59,1.59,0,0,0,1.09.44,1.56,1.56,0,0,0,1.44-.95l1.15-2.69a.4.4,0,0,1,.73,0l1.15,2.69a1.56,1.56,0,0,0,1.44.95A1.58,1.58,0,0,0,29,11.27l2.09-2.05a.36.36,0,0,1,.27-.11.4.4,0,0,1,.4.39l0,2.92A1.58,1.58,0,0,0,33.41,14a1.49,1.49,0,0,0,.59-.12l2.72-1.09a.4.4,0,0,1,.48.15.37.37,0,0,1,0,.36L36.13,16a1.58,1.58,0,0,0,.15,1.46,1.55,1.55,0,0,0,1.29.69l2.93,0a.38.38,0,0,1,.36.24.39.39,0,0,1-.08.43l-2,2.09a1.56,1.56,0,0,0-.42,1.4,1.58,1.58,0,0,0,.92,1.14l2.69,1.15a.39.39,0,0,1,0,.72l-2.69,1.15a1.58,1.58,0,0,0-.92,1.14,1.56,1.56,0,0,0,.42,1.4l2,2.09a.39.39,0,0,1,.08.43.38.38,0,0,1-.36.24l-2.93,0a1.55,1.55,0,0,0-1.28.69A1.58,1.58,0,0,0,36.13,34l1.09,2.71a.38.38,0,0,1,0,.37.4.4,0,0,1-.48.15L34,36.14a1.49,1.49,0,0,0-.59-.12,1.57,1.57,0,0,0-1.57,1.55l0,2.93a.4.4,0,0,1-.4.39.35.35,0,0,1-.27-.11l-2.09-2.05A1.54,1.54,0,0,0,28,38.29a1.56,1.56,0,0,0-1.44.95l-1.15,2.69a.4.4,0,0,1-.73,0l-1.15-2.69A1.56,1.56,0,0,0,22,38.29a1.54,1.54,0,0,0-1.09.44l-2.09,2.05a.36.36,0,0,1-.27.11.4.4,0,0,1-.4-.39l0-2.93A1.58,1.58,0,0,0,16.59,36a1.49,1.49,0,0,0-.59.12l-2.72,1.09a.4.4,0,0,1-.48-.15.39.39,0,0,1,0-.37L13.87,34a1.58,1.58,0,0,0-.15-1.46,1.55,1.55,0,0,0-1.28-.69l-2.93,0a.38.38,0,0,1-.36-.24.39.39,0,0,1,.08-.43l2-2.09a1.56,1.56,0,0,0,.42-1.4,1.58,1.58,0,0,0-.92-1.14L8.08,25.36a.39.39,0,0,1,0-.72Z"/></g></g></svg>