<svg xmlns="http://www.w3.org/2000/svg" viewBox="0 0 112.42 137.08"><defs><style>.cls-1{fill:#d20f17;}</style></defs><title>icon12</title><g id="Layer_2" data-name="Layer 2"><g id="Layer_1-2" data-name="Layer 1"><path class="cls-1" d="M17.65,29.9a5.74,5.74,0,1,0,5.74,5.74A5.75,5.75,0,0,0,17.65,29.9Zm0,8.48a2.74,2.74,0,1,1,2.74-2.74A2.74,2.74,0,0,1,17.65,38.38Z"/><path class="cls-1" d="M32.28,29.9A5.74,5.74,0,1,0,38,35.64,5.75,5.75,0,0,0,32.28,29.9Zm0,8.48A2.74,2.74,0,1,1,35,35.64,2.74,2.74,0,0,1,32.28,38.38Z"/><path class="cls-1" d="M46.9,29.9a5.74,5.74,0,1,0,5.74,5.74A5.75,5.75,0,0,0,46.9,29.9Zm0,8.48a2.74,2.74,0,1,1,2.74-2.74A2.74,2.74,0,0,1,46.9,38.38Z"/><path class="cls-1" d="M31.53,98.72A22.5,22.5,0,1,0,9,76.22,22.52,22.52,0,0,0,31.53,98.72Zm-12.1-7.24a5.9,5.9,0,0,1,4.48-5.41,5.83,5.83,0,0,0,1.28-.49,7,7,0,0,0,1.51,2.65,6.34,6.34,0,0,0,4.83,1.92,6.34,6.34,0,0,0,4.82-1.92,7,7,0,0,0,1.51-2.65,5.83,5.83,0,0,0,1.28.49,5.9,5.9,0,0,1,4.48,5.41,19.39,19.39,0,0,1-24.2,0Zm6.09-11.34c0,.18-.09.41-.16.66a11.59,11.59,0,0,1-2.61-.36,25.33,25.33,0,0,0,1.39-6.73v2.17A7.28,7.28,0,0,0,25.52,80.14Zm2.5,2.2a7.28,7.28,0,0,0,3.45.87h.1A7.28,7.28,0,0,0,35,82.34a5.78,5.78,0,0,0,.29.68,5.25,5.25,0,0,1-1.16,3.16,3.42,3.42,0,0,1-2.64,1,3.42,3.42,0,0,1-2.63-1A5.24,5.24,0,0,1,27.74,83,5.79,5.79,0,0,0,28,82.34Zm9.67-1.54c-.07-.25-.12-.48-.16-.66a7.28,7.28,0,0,0,1.38-4.26V73.7a25.34,25.34,0,0,0,1.39,6.73A11.47,11.47,0,0,1,37.69,80.8Zm.24-11.87c-4-1.48-4.76-5.41-4.88-7.57a6.92,6.92,0,0,1,3.58,1.92,7,7,0,0,1,2.06,5q0,.9,0,1.75Zm-2,2.39v4.56a4.34,4.34,0,0,1-4.33,4.33h-.1a4.34,4.34,0,0,1-4.33-4.33V71.32A9.79,9.79,0,0,0,31.53,67,9.8,9.8,0,0,0,35.91,71.32ZM25.12,68.92,24.35,70q0-.85,0-1.75a7,7,0,0,1,2.06-5A6.92,6.92,0,0,1,30,61.35C29.88,63.52,29.1,67.45,25.12,68.92Zm6.41-12.2A19.47,19.47,0,0,1,46.2,89a8.9,8.9,0,0,0-5.49-5.6A14.13,14.13,0,0,0,43,82.7l.68-2.14c-1.31-2.19-2-6.43-2-12.26a10,10,0,0,0-10-10.09h-.31a10,10,0,0,0-10,10.09c0,5.83-.67,10.07-2,12.26l.68,2.14a13.59,13.59,0,0,0,2.27.73A8.9,8.9,0,0,0,16.86,89,19.47,19.47,0,0,1,31.53,56.72Z"/><path class="cls-1" d="M50.76,104.7H12.3a1.5,1.5,0,0,0,0,3H50.76a1.5,1.5,0,0,0,0-3Z"/><path class="cls-1" d="M50.76,112.27H12.3a1.5,1.5,0,0,0,0,3H50.76a1.5,1.5,0,0,0,0-3Z"/><path class="cls-1" d="M1.5,137.08H110.92a1.5,1.5,0,0,0,1.5-1.5V23.33a1.5,1.5,0,0,0-1.5-1.5H98v-4a1.5,1.5,0,0,0-1.5-1.5h0l.09-2a1.5,1.5,0,0,0-1.5-1.56H92.56V8.57a8.57,8.57,0,1,0-17.13,0v4.15H72.92a1.5,1.5,0,0,0-1.5,1.56l.09,2h0A1.5,1.5,0,0,0,70,17.8v.47h-2.6a1.5,1.5,0,0,0-1.5,1.58l.1,2H1.5A1.5,1.5,0,0,0,0,23.33V135.58A1.5,1.5,0,0,0,1.5,137.08Zm92.75-36.71L85.5,114.1v-11a4.35,4.35,0,1,0-3,0v11l-8.75-13.73c4.79-3.57,5.25-7.62,5.09-9.79H89.16C89,92.75,89.46,96.8,94.25,100.37Zm-10.25,0A1.35,1.35,0,1,1,85.35,99,1.36,1.36,0,0,1,84,100.36ZM74.15,87.58v-.8H93.84v.8ZM73.08,53.26l-.21-.69.16-.53Zm3.7,16.39L74.84,24H93.16L91.22,69.65Zm1.52,3h4.2V83.78H78.3Zm7.2,11.13V72.65h4.2V83.78ZM93.29,21H74.71l-.07-1.69H93.36ZM71.87,24.83l.92,21.53H70.26L69.17,24.83Zm1,24.53,0,1.11a1.49,1.49,0,0,0-2.5,0l-.05-1.06Zm-5.19,6.38a1.5,1.5,0,0,0,1.5,1.42h.08l3-.15a1.5,1.5,0,0,0,.94-.4l.62,14.61a1.5,1.5,0,0,0,1.45,1.43V83.78H72.65a1.5,1.5,0,0,0-1.5,1.5v3.8a1.5,1.5,0,0,0,1.5,1.5h3.17c.17,1.42,0,5-4.92,8.1a1.5,1.5,0,0,0-.47,2.08l12.3,19.3h0a1.51,1.51,0,0,0,.22.26l.07.06.2.15.1.05.23.09.09,0a1.38,1.38,0,0,0,.69,0l.09,0,.23-.09.1-.05.2-.15.07-.06a1.5,1.5,0,0,0,.22-.26h0l12.3-19.3a1.5,1.5,0,0,0-.47-2.08c-4.92-3.1-5.09-6.67-4.92-8.1h3.17a1.5,1.5,0,0,0,1.5-1.5v-3.8a1.5,1.5,0,0,0-1.5-1.5H92.7V72.65a1.5,1.5,0,0,0,1.45-1.43l.93-21.86h14.34v74.12H87.62V123a1.5,1.5,0,0,0-1.5-1.5H82.2a1.5,1.5,0,0,0-1.5,1.5v.46H3V49.36H67.4Zm41.7,78.34H3v-7.6H80.7v.46a1.5,1.5,0,0,0,1.5,1.5h3.92a1.5,1.5,0,0,0,1.5-1.5v-.46h21.81Zm0-87.72H95.21l.92-21.53h13.3Zm-31-37.79a5.57,5.57,0,1,1,11.13,0v4.15H78.43Zm-3.95,7.15h19l0,.58h-19ZM69,21.27h1v.55H69ZM3,24.83H66.16l1.09,21.53H3Z"/></g></g></svg>