<svg xmlns="http://www.w3.org/2000/svg" viewBox="0 0 1171.83 1171.83"><defs><style>.cls-1{fill:#a8a8a8;}</style></defs><title>lang-icon</title><g id="Layer_2" data-name="Layer 2"><g id="Layer_1-2" data-name="Layer 1"><g id="Globe_2" data-name="Globe 2"><path class="cls-1" d="M585.92,0C262.32,0,0,262.32,0,585.92s262.32,585.92,585.92,585.92,585.92-262.32,585.92-585.92S909.51,0,585.92,0Zm0,1118.57c-294.17,0-532.65-238.47-532.65-532.65S291.75,53.27,585.92,53.27s532.65,238.47,532.65,532.65S880.1,1118.57,585.92,1118.57ZM652.5,702.43C595.9,654.16,602.56,632.52,531,632.52S414.47,649.17,432.78,749s71.57,54.93,66.58,131.5,13.32,93.21,25,111.52,46.61,71.58,59.92-3.33,38.28-116.52,66.58-153.14S709.09,750.7,652.5,702.43ZM456.08,527.66c3.33-38.28,64.92-78.23,106.53-96.54s79.9-25,74.9-56.59S620.87,319.59,556,319.59s-36.62,86.56-89.88,35,11.65-38.28,38.28-49.94,53.27-59.92,6.66-63.25-36.62,20-73.24,6.66-53.27,46.61-76.57,38.28c-15.42-5.51-56.67-36.46-84-66.89A480.29,480.29,0,0,0,148.09,391.27c7.92,89.5,56.65,136.39,56.65,136.39s25,58.26,174.78,129.83c0,0,28.3,1.66-5-31.63s-69.91-74.9-28.3-96.54,53.27-20,63.25,20S452.75,565.94,456.08,527.66ZM881.37,698.27c-19.14,11.65-18.31,37.45-2.5,51.6s47.44,32.46,57.43,0S900.51,686.62,881.37,698.27Zm181.68-156.86c-.42-4.63-1.08-9.18-1.64-13.76-1.22-10.14-2.73-20.16-4.59-30.07-.95-5.07-1.91-10.12-3-15.14-2.17-9.83-4.74-19.51-7.49-29.13-1.25-4.32-2.31-8.74-3.68-13q-6.16-19.31-13.86-37.87c-2.18-5.23-4.71-10.27-7.06-15.4-3.36-7.33-6.76-14.62-10.47-21.72-3.28-6.29-6.74-12.46-10.27-18.57-3.16-5.46-6.45-10.82-9.82-16.15-4.2-6.63-8.41-13.27-12.92-19.66-2.47-3.51-5.15-6.87-7.7-10.33a482.05,482.05,0,0,0-62.77-69.23c-1.46-1.33-2.87-2.65-4.34-4-8.28-7.31-16.78-14.38-25.55-21.12-.44-.36-.9-.68-1.35-1a480.23,480.23,0,0,0-125.54-69c-13.59,21.66-27.36,49.21-43.54,58.44-23.3,13.32-21.64,66.58,23.3,61.59,0,0-13.32,13.32,0,61.59s35.66,58.75,101.54,31.63c28.3-11.65,49.73-5.59,46.61,23.3-6.66,61.59-54.11,59-18.31,158.13,21.64,59.92,74.9,83.23,94.88,129.83,11,25.64,53.16,49.21,88.92,65.28,3.82-12.54,7-25.36,9.86-38.34,1.07-4.92,1.9-9.93,2.82-14.93,1.77-9.68,3.29-19.43,4.47-29.31.56-4.66,1.16-9.28,1.59-14,1.3-14.38,2.2-28.9,2.2-43.64C1065.3,570.88,1064.4,556.08,1063.05,541.42Z"/></g></g></g></svg>