<svg xmlns="http://www.w3.org/2000/svg" viewBox="0 0 77.3 15.7"><defs><style>.st0{fill:#1a1d1f;}</style></defs><title>logo</title><g id="Layer_2" data-name="Layer 2"><g id="restless"><path class="st0" d="M3,3.9V6A3.64,3.64,0,0,1,6.4,3.8v3H5.7a2.58,2.58,0,0,0-2,.7A3.3,3.3,0,0,0,3,9.8v5.7H0V3.9Z"/><path class="st0" d="M12.9,15.7a5.28,5.28,0,0,1-4.1-1.6A6,6,0,0,1,7.2,9.7,5.58,5.58,0,0,1,8.8,5.4,5.65,5.65,0,0,1,13,3.8a5.65,5.65,0,0,1,4.2,1.6,5.65,5.65,0,0,1,1.6,4.2,3.75,3.75,0,0,1-.1,1.1H10.2a3,3,0,0,0,.8,1.8,2.49,2.49,0,0,0,1.9.7,2.45,2.45,0,0,0,2.3-1.3h3.2a4.85,4.85,0,0,1-2,2.7A5.62,5.62,0,0,1,12.9,15.7Zm2-8.8A2.64,2.64,0,0,0,13,6.2a2.64,2.64,0,0,0-1.9.7,3.1,3.1,0,0,0-.9,1.8h5.5A2.5,2.5,0,0,0,14.9,6.9Z"/><path class="st0" d="M19.9,7.3a2.88,2.88,0,0,1,1.3-2.5,6,6,0,0,1,3.4-1,5.29,5.29,0,0,1,3.4,1,3.65,3.65,0,0,1,1.4,2.8h-3a1.56,1.56,0,0,0-1.8-1.5,2.27,2.27,0,0,0-1.3.3,1.05,1.05,0,0,0-.5.9.93.93,0,0,0,.7.9,6.87,6.87,0,0,0,1.7.5,14.62,14.62,0,0,1,2,.5,3.67,3.67,0,0,1,1.7,1,2.49,2.49,0,0,1,.7,1.9,3.17,3.17,0,0,1-1.3,2.6,5.29,5.29,0,0,1-3.4,1,5.29,5.29,0,0,1-3.4-1,3.37,3.37,0,0,1-1.4-2.8h3c.1,1,.7,1.5,1.9,1.5a1.84,1.84,0,0,0,1.3-.4,1.23,1.23,0,0,0,.5-1,.93.93,0,0,0-.7-.9,6.87,6.87,0,0,0-1.7-.5,14.62,14.62,0,0,1-2-.5,3.67,3.67,0,0,1-1.7-1A2.5,2.5,0,0,1,19.9,7.3Z"/><path class="st0" d="M36,13h1.4v2.5H35.5a4.65,4.65,0,0,1-2.8-.8,3.09,3.09,0,0,1-1-2.7V6.3H30.5V3.9h1.2V1h3V3.9h2.6V6.3H34.7V12a1,1,0,0,0,.3.8A2.51,2.51,0,0,0,36,13Z"/><path class="st0" d="M39.2,15.5V0h3V15.5Z"/><path class="st0" d="M49.7,15.7a5.28,5.28,0,0,1-4.1-1.6A6,6,0,0,1,44,9.7a5.58,5.58,0,0,1,1.6-4.3,5.65,5.65,0,0,1,4.2-1.6A5.65,5.65,0,0,1,54,5.4a5.65,5.65,0,0,1,1.6,4.2,3.75,3.75,0,0,1-.1,1.1H47a2.54,2.54,0,0,0,.8,1.8,2.49,2.49,0,0,0,1.9.7A2.45,2.45,0,0,0,52,11.9h3.2a4.85,4.85,0,0,1-2,2.7A5.84,5.84,0,0,1,49.7,15.7Zm1.9-8.8a2.93,2.93,0,0,0-3.8,0,3.1,3.1,0,0,0-.9,1.8h5.6A2.62,2.62,0,0,0,51.6,6.9Z"/><path class="st0" d="M56.7,7.3A2.88,2.88,0,0,1,58,4.8a6.28,6.28,0,0,1,6.8,0,3.65,3.65,0,0,1,1.4,2.8h-3a1.56,1.56,0,0,0-1.8-1.5,2.27,2.27,0,0,0-1.3.3,1.05,1.05,0,0,0-.5.9.93.93,0,0,0,.7.9,6.87,6.87,0,0,0,1.7.5,14.62,14.62,0,0,1,2,.5,3.67,3.67,0,0,1,1.7,1,2.49,2.49,0,0,1,.7,1.9,3.17,3.17,0,0,1-1.3,2.6,6.28,6.28,0,0,1-6.8,0,3.37,3.37,0,0,1-1.4-2.8h3c.1,1,.7,1.5,1.9,1.5a1.84,1.84,0,0,0,1.3-.4,1.23,1.23,0,0,0,.5-1,.93.93,0,0,0-.7-.9,6.87,6.87,0,0,0-1.7-.5,14.62,14.62,0,0,1-2-.5,3.67,3.67,0,0,1-1.7-1A2.17,2.17,0,0,1,56.7,7.3Z"/><path class="st0" d="M67.6,7.3a2.88,2.88,0,0,1,1.3-2.5,6.28,6.28,0,0,1,6.8,0,3.59,3.59,0,0,1,1.4,2.7h-3A1.56,1.56,0,0,0,72.3,6a2.27,2.27,0,0,0-1.3.3,1.11,1.11,0,0,0-.5,1,.93.93,0,0,0,.7.9,6.87,6.87,0,0,0,1.7.5,14.62,14.62,0,0,1,2,.5,3.67,3.67,0,0,1,1.7,1,2.49,2.49,0,0,1,.7,1.9A3.17,3.17,0,0,1,76,14.7a6.28,6.28,0,0,1-6.8,0,3.37,3.37,0,0,1-1.4-2.8h3c.1,1,.7,1.5,1.9,1.5A1.84,1.84,0,0,0,74,13a1.23,1.23,0,0,0,.5-1,.93.93,0,0,0-.7-.9,6.87,6.87,0,0,0-1.7-.5,14.62,14.62,0,0,1-2-.5,3.67,3.67,0,0,1-1.7-1A2.17,2.17,0,0,1,67.6,7.3Z"/></g></g></svg>