<svg xmlns="http://www.w3.org/2000/svg" viewBox="0 0 24 32"><defs><style>.st0{fill:#fff;}</style></defs><title>map-icon</title><g id="Layer_2" data-name="Layer 2"><g id="Layer_1-2" data-name="Layer 1"><path class="st0" d="M12,0A12,12,0,0,0,0,12c0,9.93,11.2,19.46,11.68,19.86a.5.5,0,0,0,.64,0C12.8,31.49,24,22.12,24,12A12,12,0,0,0,12,0Zm0,30.84C10.16,29.19,1,20.58,1,12a11,11,0,1,1,22,0C23,20.72,13.85,29.22,12,30.84Z"/><path class="st0" d="M12,6a6,6,0,1,0,6,6A6,6,0,0,0,12,6Zm0,11a5,5,0,1,1,5-5A5,5,0,0,1,12,17Z"/></g></g></svg>