<svg xmlns="http://www.w3.org/2000/svg" viewBox="0 0 20 9.99"><defs><style>.cls-1{fill:#1a1d1f;}</style></defs><title>next-arrow-dark</title><g id="Layer_2" data-name="Layer 2"><g id="Layer_1-2" data-name="Layer 1"><path id="arrow_copy" data-name="arrow copy" class="cls-1" d="M19.87,5.31,15.32,9.86a.45.45,0,0,1-.77-.32h0a.48.48,0,0,1,.13-.32l3.77-3.77H.45A.45.45,0,0,1,0,5H0a.46.46,0,0,1,.45-.46h18L14.68.76a.45.45,0,0,1,.64-.64l4.55,4.55A.44.44,0,0,1,20,5,.46.46,0,0,1,19.87,5.31Z"/></g></g></svg>