<svg xmlns="http://www.w3.org/2000/svg" viewBox="0 0 50 50"><title>phone-icon</title><g id="Layer_2" data-name="Layer 2"><g id="Layer_1-2" data-name="Layer 1"><path class="st0" d="M50,39.75h0a3.39,3.39,0,0,0-1-2.41,3.24,3.24,0,0,0-.6-.47l-9.62-7.48a3.4,3.4,0,0,0-2.41-1,3.37,3.37,0,0,0-2.05.7l-2.68,2.71h0a2.25,2.25,0,0,1-3.54-.2l-.05.07A43.52,43.52,0,0,1,18.32,22l.08-.06a2.27,2.27,0,0,1-.17-3.61h0l2.67-2.65a3.31,3.31,0,0,0,.7-2,3.39,3.39,0,0,0-1-2.41L13.11,1.61A3.66,3.66,0,0,0,12.64,1a3.4,3.4,0,0,0-2.41-1C5.68,0,0,5.34,0,11.93A11.91,11.91,0,0,0,1.15,17l0,0A72.14,72.14,0,0,0,32.94,48.89l0,0A11.89,11.89,0,0,0,38.07,50C44.66,50,50,44.32,50,39.78v0Zm-11.93,8a9.62,9.62,0,0,1-4.13-.93,1.93,1.93,0,0,0-.37-.14A69.69,69.69,0,0,1,3.35,16.44,1.92,1.92,0,0,0,3.21,16a9.59,9.59,0,0,1-.94-4.12c0-5.51,4.83-9.66,8-9.66a1.11,1.11,0,0,1,.8.33,1,1,0,0,1,.15.21l.13.19,7.49,9.62.19.21a1.15,1.15,0,0,1,.33.8,1.05,1.05,0,0,1-.17.57L16.62,16.7l0,0a4.55,4.55,0,0,0-.21,6.44h0l.09.13A45.73,45.73,0,0,0,26.69,33.48l.09.06a4.52,4.52,0,0,0,6.32,0l.13-.12,2.55-2.57a1.08,1.08,0,0,1,.57-.17,1.15,1.15,0,0,1,.8.33l.21.19L47,38.66l.19.13.21.15a1.15,1.15,0,0,1,.33.8,1.73,1.73,0,0,0,0,.23C47.54,43.1,43.46,47.72,38.07,47.72Z"/></g></g></svg>