<svg xmlns="http://www.w3.org/2000/svg" viewBox="0 0 44 44"><defs><style>.cls-1{fill:#848484;}</style></defs><title>user-icon</title><g id="Layer_2" data-name="Layer 2"><g id="General"><g id="User_Male_2x.png" data-name="User Male@2x.png"><path class="cls-1" d="M22,0A22,22,0,1,0,44,22,22,22,0,0,0,22,0Zm0,42A19.9,19.9,0,0,1,9,37.16a21.8,21.8,0,0,1,7-4.32c3.45-1.52,4.62-4.22,3.22-7.4-.25-.57-.54-1.1-.85-1.66A16,16,0,0,1,16,14.72c0-5.88,2.79-5.92,5-6a8.13,8.13,0,0,0,3-.52A2.86,2.86,0,0,1,25.07,8C26.93,8,29,9.84,29,15s-.78,6.45-2,8.56c-.31.55-.65,1.16-1,1.88a4.94,4.94,0,0,0-.42,3.89c.53,1.52,1.91,2.76,4.34,3.91a22.66,22.66,0,0,1,5.2,3.84A19.91,19.91,0,0,1,22,42Zm14.58-6.34a24.67,24.67,0,0,0-5.79-4.26c-1.89-.89-3-1.8-3.31-2.76a3,3,0,0,1,.32-2.35c.34-.69.66-1.26,1-1.78C30,22.27,31,20.67,31,15c0-8.53-4.92-9-5.9-9a4.79,4.79,0,0,0-1.78.35,6.2,6.2,0,0,1-2.32.4c-2.25,0-7,.12-7,8a17.88,17.88,0,0,0,2.55,10c.29.52.56,1,.77,1.5,1,2.17.26,3.68-2.2,4.77a23.69,23.69,0,0,0-7.6,4.76,20,20,0,1,1,29.06-.12Z"/></g></g></g></svg>