<svg xmlns="http://www.w3.org/2000/svg" width="20" height="10" viewBox="0 0 20 10">
  <defs>
    <style>
      .cls-1 {
        fill: #fff;
        fill-rule: evenodd;
      }
    </style>
  </defs>
  <path id="arrow" class="cls-1" d="M1600.87,483.321l-4.55,4.546a0.439,0.439,0,0,1-.32.133,0.451,0.451,0,0,1-.45-0.455,0.46,0.46,0,0,1,.13-0.321l3.77-3.77h-18a0.455,0.455,0,0,1,0-.909h18l-3.77-3.769a0.462,0.462,0,0,1-.13-0.322A0.451,0.451,0,0,1,1596,478a0.439,0.439,0,0,1,.32.133l4.55,4.545A0.463,0.463,0,0,1,1600.87,483.321Z" transform="translate(-1581 -478)"/>
</svg>
