<svg xmlns="http://www.w3.org/2000/svg" width="20" height="10" viewBox="0 0 20 10">
  <defs>
    <style>
      .cls-1 {
        fill: #fff;
        fill-rule: evenodd;
      }
    </style>
  </defs>
  <path id="arrow" class="cls-1" d="M1578.13,514.321l4.55,4.546a0.439,0.439,0,0,0,.32.133,0.452,0.452,0,0,0,.45-0.455,0.46,0.46,0,0,0-.13-0.321l-3.77-3.77h18a0.455,0.455,0,0,0,0-.909h-18l3.77-3.769a0.462,0.462,0,0,0,.13-0.322A0.451,0.451,0,0,0,1583,509a0.435,0.435,0,0,0-.32.133l-4.55,4.546a0.456,0.456,0,0,0-.13.321A0.461,0.461,0,0,0,1578.13,514.321Z" transform="translate(-1578 -509)"/>
</svg>
