<?xml version="1.0" encoding="UTF-8" standalone="no"?>
<!DOCTYPE svg PUBLIC "-//W3C//DTD SVG 1.1//EN" "http://www.w3.org/Graphics/SVG/1.1/DTD/svg11.dtd">
<svg width="100%" height="100%" viewBox="0 0 41 41" version="1.1" xmlns="http://www.w3.org/2000/svg" xmlns:xlink="http://www.w3.org/1999/xlink" xml:space="preserve" style="fill-rule:evenodd;clip-rule:evenodd;stroke-linejoin:round;stroke-miterlimit:1.41421;">
    <g transform="matrix(1,0,0,1,-359.999,-1356)">
        <path id="Shape-7" d="M379.171,1392.16C377.937,1390.98 374.894,1387.89 372.668,1384.1C367.439,1381.32 365.067,1376.39 364.969,1376.18L364.969,1375.81C365.014,1375.72 369.514,1366.44 379.45,1366.1C379.632,1366.09 379.815,1366.09 379.999,1366.09C380.184,1366.09 380.367,1366.09 380.55,1366.1C390.444,1366.44 394.984,1375.71 395.029,1375.81L395.029,1376.18C394.929,1376.39 392.531,1381.33 387.294,1384.11C385.068,1387.88 382.044,1390.98 380.822,1392.16L381.486,1392.16L381.92,1392.59L381.92,1393.64L390.872,1393.64C391.04,1393.26 391.421,1393 391.864,1393C392.462,1393 392.949,1393.48 392.949,1394.08C392.949,1394.68 392.462,1395.16 391.864,1395.16C391.421,1395.16 391.04,1394.9 390.872,1394.51L381.92,1394.51L381.92,1395.57L381.486,1396L378.512,1396L378.078,1395.57L378.078,1394.51L369.127,1394.51C368.959,1394.9 368.577,1395.16 368.134,1395.16C367.536,1395.16 367.05,1394.68 367.05,1394.08C367.05,1393.48 367.536,1393 368.134,1393C368.578,1393 368.959,1393.26 369.127,1393.64L378.078,1393.64L378.078,1392.59L378.512,1392.16L379.171,1392.16ZM381.052,1395.13L381.052,1393.03L378.946,1393.03L378.946,1395.13L381.052,1395.13ZM391.864,1394.17L391.864,1393.99C391.916,1393.99 391.959,1394.03 391.959,1394.08C391.959,1394.13 391.916,1394.17 391.864,1394.17ZM368.073,1394.15C368.054,1394.13 368.04,1394.11 368.04,1394.08C368.04,1394.05 368.054,1394.03 368.073,1394.01L368.073,1394.15ZM379.997,1391.74C378.418,1390.25 370.954,1382.85 370.954,1376C370.954,1371.17 374.755,1367.22 379.521,1366.97C379.68,1366.96 379.837,1366.95 379.999,1366.95C380.162,1366.95 380.319,1366.96 380.479,1366.97C385.244,1367.22 389.044,1371.17 389.044,1376C389.044,1382.75 381.573,1390.24 379.997,1391.74ZM394.149,1376C393.708,1376.83 391.742,1380.24 388.11,1382.62C389.175,1380.5 389.912,1378.23 389.912,1376C389.912,1372.95 388.532,1370.23 386.366,1368.41C391.127,1370.71 393.642,1375.05 394.149,1376ZM373.653,1368.39C371.475,1370.21 370.086,1372.94 370.086,1376C370.086,1378.24 370.81,1380.5 371.861,1382.61C368.233,1380.23 366.284,1376.83 365.849,1376C366.351,1375.05 368.861,1370.69 373.653,1368.39ZM379.999,1370.64C377.046,1370.64 374.643,1373.04 374.643,1376C374.643,1378.95 377.046,1381.35 379.999,1381.35C382.953,1381.35 385.356,1378.95 385.356,1376C385.356,1373.04 382.953,1370.64 379.999,1370.64ZM379.999,1380.48C377.525,1380.48 375.511,1378.47 375.511,1376C375.511,1373.52 377.525,1371.51 379.999,1371.51C382.474,1371.51 384.487,1373.52 384.487,1376C384.487,1378.47 382.474,1380.48 379.999,1380.48ZM359.999,1375.56L364.361,1375.56L364.361,1376.43L359.999,1376.43L359.999,1375.56ZM395.638,1375.56L400,1375.56L400,1376.43L395.638,1376.43L395.638,1375.56ZM366.907,1369.92L361.784,1367.73L361.442,1368.52L366.565,1370.72L366.907,1369.92ZM398.728,1368.96L398.405,1368.16L394.356,1369.78L394.678,1370.59L398.728,1368.96ZM366.164,1361.55L365.55,1362.16L369.49,1366.1L370.104,1365.49L366.164,1361.55ZM389.897,1365.49L390.511,1366.1L394.449,1362.16L393.835,1361.55L389.897,1365.49ZM372.967,1357.27L372.161,1357.59L374.405,1363.19L375.211,1362.87L372.967,1357.27ZM387.472,1357.44L385.28,1362.56L386.079,1362.9L388.27,1357.78L387.472,1357.44ZM379.565,1356L380.433,1356L380.433,1362.03L379.565,1362.03L379.565,1356Z" style="fill:rgb(0,179,189);"/>
    </g>
</svg>
