<svg xmlns="http://www.w3.org/2000/svg" width="56" height="56" viewBox="0 0 56 56">
  <defs>
    <style>
      .st0  {
             fill-rule: evenodd;
      }
    </style>
  </defs>
  <path id="_" data-name="" class="st0" d="M404.688,840.844a23.826,23.826,0,0,0,9.843,8.781l-11.468-31.406A23.723,23.723,0,0,0,400.969,828,23.339,23.339,0,0,0,404.688,840.844Zm34.562-20.688q-0.093-.156-0.437-0.718t-0.454-.75q-0.109-.187-0.39-0.657a5.421,5.421,0,0,1-.375-0.7c-0.063-.156-0.156-0.375-0.281-0.656a3.678,3.678,0,0,1-.25-0.719q-0.063-.3-0.125-0.672a4.519,4.519,0,0,1-.063-0.75,4.279,4.279,0,0,1,1.156-2.984,3.735,3.735,0,0,1,2.875-1.266h0.313a24.167,24.167,0,0,0-7.453-4.656,24.029,24.029,0,0,0-20.25,1.266,23.9,23.9,0,0,0-8.578,7.922q0.312,0,.812.015t0.719,0.016l6.406-.313a0.933,0.933,0,0,1,.891.422,0.979,0.979,0,0,1,.078.969,0.921,0.921,0,0,1-.813.578q-1.312.156-2.75,0.25l8.75,26,5.25-15.75-3.75-10.25-2.5-.25a0.981,0.981,0,0,1-.609-0.25,0.877,0.877,0,0,1-.281-0.516,1.193,1.193,0,0,1,.047-0.578,0.923,0.923,0,0,1,.359-0.468,0.946,0.946,0,0,1,.641-0.157q3.968,0.282,6.312.313l6.406-.313a0.932,0.932,0,0,1,.891.422,0.975,0.975,0,0,1,.078.969,0.921,0.921,0,0,1-.812.578q-1.312.156-2.75,0.25L437,842.563l2.375-8q0.125-.406.547-1.813t0.547-1.844q0.125-.436.359-1.375a14.219,14.219,0,0,0,.313-1.547,9.65,9.65,0,0,0,.078-1.2,12.984,12.984,0,0,0-1.969-6.625h0Zm-21.031,30.875a23.118,23.118,0,0,0,6.781,1,24.01,24.01,0,0,0,7.969-1.375,0.719,0.719,0,0,1-.156-0.343l-7.407-20.219Zm28.031-32.093a27.546,27.546,0,0,1-1.844,8.625l-7.343,21.187a24.009,24.009,0,0,0,8.718-8.7A23.3,23.3,0,0,0,449.031,828a23.711,23.711,0,0,0-2.968-11.531,15.436,15.436,0,0,1,.187,2.469h0Zm-41.062-10.75a28.128,28.128,0,0,0-5.969,8.937,27.758,27.758,0,0,0,0,21.75,27.508,27.508,0,0,0,14.906,14.906,27.758,27.758,0,0,0,21.75,0,27.5,27.5,0,0,0,14.906-14.906,27.758,27.758,0,0,0,0-21.75,27.508,27.508,0,0,0-14.906-14.906,27.758,27.758,0,0,0-21.75,0A28.128,28.128,0,0,0,405.188,808.188Zm0.921,38.7a26.949,26.949,0,0,1-5.7-8.532,26.312,26.312,0,0,1,0-20.718,26.324,26.324,0,0,1,14.235-14.235,26.312,26.312,0,0,1,20.718,0,26.324,26.324,0,0,1,14.235,14.235,26.312,26.312,0,0,1,0,20.718,26.324,26.324,0,0,1-14.235,14.235,26.312,26.312,0,0,1-20.718,0A26.949,26.949,0,0,1,406.109,846.891Z" transform="translate(-397 -800)" style="fill:rgb(0,179,189);"/>
</svg>
