<?xml version="1.0" encoding="UTF-8" standalone="no"?>
<!DOCTYPE svg PUBLIC "-//W3C//DTD SVG 1.1//EN" "http://www.w3.org/Graphics/SVG/1.1/DTD/svg11.dtd">
<svg width="100%" height="100%" viewBox="0 0 41 33" version="1.1" xmlns="http://www.w3.org/2000/svg" xmlns:xlink="http://www.w3.org/1999/xlink" xml:space="preserve" style="fill-rule:evenodd;clip-rule:evenodd;stroke-linejoin:round;stroke-miterlimit:1.41421;">
    <g transform="matrix(1,0,0,1,-1173,-1539)">
        <path id="Shape-9" d="M1207.87,1569.71L1207.05,1568.98C1206.88,1568.82 1206.86,1568.56 1207.02,1568.39C1207.17,1568.22 1207.44,1568.2 1207.61,1568.36L1209.24,1569.81C1209.33,1569.89 1209.38,1570.01 1209.38,1570.12C1209.38,1570.24 1209.33,1570.36 1209.24,1570.43L1207.61,1571.89C1207.53,1571.96 1207.43,1572 1207.33,1572C1207.21,1572 1207.1,1571.95 1207.02,1571.86C1206.86,1571.69 1206.88,1571.42 1207.05,1571.27L1207.87,1570.54L1180.26,1570.54L1181.08,1571.27C1181.25,1571.42 1181.27,1571.69 1181.11,1571.86C1181.03,1571.95 1180.91,1572 1180.8,1572C1180.7,1572 1180.6,1571.96 1180.52,1571.89L1178.89,1570.43C1178.8,1570.36 1178.75,1570.24 1178.75,1570.12C1178.75,1570.01 1178.8,1569.89 1178.89,1569.81L1180.52,1568.36C1180.69,1568.2 1180.96,1568.22 1181.11,1568.39C1181.27,1568.56 1181.25,1568.82 1181.08,1568.98L1180.26,1569.71L1207.87,1569.71ZM1208.82,1539C1209.06,1539 1209.24,1539.19 1209.24,1539.42L1209.24,1548.61C1209.24,1548.84 1209.06,1549.03 1208.82,1549.03C1206.86,1549.03 1205.15,1547.64 1204.76,1545.74C1204.54,1544.71 1203.63,1543.97 1202.58,1543.97L1199.77,1543.97C1199.34,1543.97 1198.95,1544.19 1198.73,1544.57C1198.51,1544.94 1198.51,1545.39 1198.72,1545.76L1208,1563.25C1208.52,1564.16 1209.52,1564.74 1210.59,1564.75L1210.81,1564.75C1212.02,1564.75 1213,1565.72 1213,1566.92C1213,1567.15 1212.81,1567.34 1212.58,1567.34L1201.74,1567.34C1201.51,1567.34 1201.32,1567.15 1201.32,1566.92C1201.32,1565.72 1202.31,1564.75 1203.51,1564.75C1203.99,1564.75 1204.41,1564.5 1204.65,1564.1C1204.9,1563.69 1204.9,1563.2 1204.67,1562.79L1202.73,1559.34L1196.08,1559.34L1196.08,1564.75L1197.32,1564.75C1198.53,1564.75 1199.51,1565.72 1199.51,1566.92C1199.51,1567.15 1199.32,1567.34 1199.09,1567.34L1186.91,1567.34C1186.68,1567.34 1186.49,1567.15 1186.49,1566.92C1186.49,1565.72 1187.48,1564.75 1188.68,1564.75L1189.92,1564.75L1189.92,1559.34L1183.27,1559.34L1181.33,1562.79C1181.1,1563.2 1181.1,1563.69 1181.35,1564.1C1181.59,1564.5 1182.01,1564.75 1182.49,1564.75C1183.69,1564.75 1184.68,1565.72 1184.68,1566.92C1184.68,1567.15 1184.49,1567.34 1184.26,1567.34L1173.42,1567.34C1173.19,1567.34 1173,1567.15 1173,1566.92C1173,1565.72 1173.98,1564.75 1175.19,1564.75L1175.41,1564.75C1176.49,1564.74 1177.48,1564.16 1178.01,1563.23L1187.28,1545.77C1187.49,1545.39 1187.49,1544.94 1187.27,1544.57C1187.05,1544.19 1186.66,1543.97 1186.23,1543.97L1183.42,1543.97C1182.37,1543.97 1181.46,1544.71 1181.25,1545.74C1180.85,1547.64 1179.14,1549.03 1177.18,1549.03C1176.94,1549.03 1176.76,1548.84 1176.76,1548.61L1176.76,1539.42C1176.76,1539.19 1176.94,1539 1177.18,1539L1208.82,1539ZM1208.4,1539.83L1177.6,1539.83L1177.6,1548.17C1178.98,1547.99 1180.14,1546.95 1180.42,1545.57C1180.72,1544.16 1181.98,1543.14 1183.42,1543.14L1186.23,1543.14C1186.97,1543.14 1187.63,1543.52 1188,1544.15C1188.37,1544.78 1188.37,1545.54 1188.01,1546.17L1178.75,1563.63C1178.06,1564.84 1176.79,1565.58 1175.41,1565.58L1175.19,1565.58C1174.59,1565.58 1174.08,1565.97 1173.9,1566.51L1183.77,1566.51C1183.59,1565.97 1183.09,1565.58 1182.49,1565.58C1181.71,1565.58 1181.01,1565.18 1180.62,1564.52C1180.23,1563.85 1180.22,1563.05 1180.6,1562.38L1182.66,1558.72C1182.73,1558.59 1182.87,1558.51 1183.03,1558.5L1190.34,1558.5C1190.58,1558.51 1190.76,1558.69 1190.76,1558.92L1190.76,1565.16C1190.76,1565.39 1190.58,1565.58 1190.34,1565.58L1188.68,1565.58C1188.08,1565.58 1187.58,1565.97 1187.4,1566.51L1198.6,1566.51C1198.42,1565.97 1197.91,1565.58 1197.32,1565.58L1195.66,1565.58C1195.42,1565.58 1195.24,1565.39 1195.24,1565.16L1195.24,1558.92C1195.24,1558.69 1195.42,1558.51 1195.66,1558.5L1202.97,1558.5C1203.13,1558.51 1203.27,1558.59 1203.34,1558.72L1205.4,1562.38C1205.78,1563.05 1205.77,1563.85 1205.38,1564.52C1204.99,1565.18 1204.29,1565.58 1203.51,1565.58C1202.91,1565.58 1202.4,1565.97 1202.23,1566.51L1212.1,1566.51C1211.92,1565.97 1211.41,1565.58 1210.81,1565.58L1210.59,1565.58C1209.21,1565.58 1207.94,1564.84 1207.26,1563.64L1197.98,1546.16C1197.63,1545.54 1197.63,1544.78 1198,1544.15C1198.37,1543.52 1199.03,1543.14 1199.77,1543.14L1202.58,1543.14C1204.02,1543.14 1205.28,1544.16 1205.58,1545.57C1205.86,1546.95 1207.02,1547.99 1208.4,1548.17L1208.4,1539.83ZM1190.34,1557.36L1184.14,1557.36C1183.99,1557.36 1183.86,1557.28 1183.78,1557.16C1183.71,1557.04 1183.7,1556.88 1183.76,1556.76L1187.84,1548.64C1188.2,1548 1188.91,1547.71 1189.6,1547.89C1190.3,1548.07 1190.76,1548.67 1190.76,1549.38L1190.76,1556.94C1190.76,1557.17 1190.58,1557.36 1190.34,1557.36ZM1201.86,1557.36L1195.66,1557.36C1195.42,1557.36 1195.24,1557.17 1195.24,1556.94L1195.24,1549.38C1195.24,1548.67 1195.7,1548.07 1196.4,1547.89C1197.09,1547.71 1197.8,1548 1198.15,1548.63L1202.24,1556.76C1202.3,1556.88 1202.29,1557.04 1202.22,1557.16C1202.14,1557.28 1202.01,1557.36 1201.86,1557.36ZM1189.92,1556.53L1189.92,1549.38C1189.92,1548.98 1189.65,1548.76 1189.39,1548.69C1189.13,1548.63 1188.78,1548.68 1188.58,1549.03L1184.82,1556.53L1189.92,1556.53ZM1201.18,1556.53L1197.41,1549.02C1197.22,1548.68 1196.87,1548.63 1196.61,1548.69C1196.35,1548.76 1196.08,1548.98 1196.08,1549.38L1196.08,1556.53L1201.18,1556.53Z" style="fill:rgb(0,179,189);"/>
    </g>
</svg>
