<?xml version="1.0" encoding="UTF-8" standalone="no"?><!DOCTYPE svg PUBLIC "-//W3C//DTD SVG 1.1//EN" "http://www.w3.org/Graphics/SVG/1.1/DTD/svg11.dtd"><svg width="100%" height="100%" viewBox="0 0 122 101" version="1.1" xmlns="http://www.w3.org/2000/svg" xmlns:xlink="http://www.w3.org/1999/xlink" xml:space="preserve" style="fill-rule:evenodd;clip-rule:evenodd;stroke-linejoin:round;stroke-miterlimit:1.41421;"><path id="Shape-2" d="M105.444,16.247l0.142,0.822c0.246,1.429 -0.389,2.849 -1.616,3.616c-0.808,0.505 -1.763,0.667 -2.69,0.452c-0.927,-0.212 -1.716,-0.773 -2.221,-1.578c-1.042,-1.662 -0.536,-3.861 1.128,-4.902c1.228,-0.769 2.784,-0.718 3.966,0.127l0.679,0.486l15.228,-9.521c0,0 0.001,-0.001 0.002,-0.001l-1.323,-2.111c-3.801,2.376 -20.977,1.901 -27.273,1.518l-1.099,-0.068l-0.203,1.081c-0.524,2.798 -1.27,5.585 -2.199,8.314c-0.601,-0.428 -1.328,-0.669 -2.088,-0.669c-0.673,0 -1.332,0.188 -1.905,0.547l-2.612,1.632c-0.833,0.52 -1.403,1.334 -1.607,2.293l-15.125,9.165l-5.079,-3.239l0.012,-0.018l-1.085,-0.666l-0.014,-0.009l0,0.001l-7.987,-4.898c-0.381,-1.889 -2.029,-7.744 -8.415,-12.431c-8.536,-6.264 -21.706,-7.783 -39.138,-4.516l-2.922,0.549l2.439,1.696c0.115,0.08 11.42,8.027 11.739,15.588c0.266,6.282 2.703,11.527 6.863,14.767c3.109,2.421 7.016,3.651 11.493,3.651c1.673,0 3.427,-0.18 5.246,-0.526l7.925,4.85l-0.001,0l7.771,4.821l0.019,32.594l0,0.413l11.303,19.923l4.973,-8.793l0.245,-0.33l-0.058,0l6.138,-10.852l0,-0.361l0.019,-32.587l16.358,-9.977c0.258,0.059 0.523,0.093 0.793,0.093c0.674,0 1.333,-0.189 1.906,-0.547l2.612,-1.633c0.838,-0.523 1.411,-1.343 1.612,-2.31c0.071,-0.338 0.075,-0.676 0.05,-1.01c2.709,0.368 5.315,0.927 7.753,1.69l1.091,0.341l0.435,-1.056c2.394,-5.817 9.444,-21.437 13.273,-23.833l0.001,-0.001l-1.323,-2.11l-15.231,9.523Zm-38.351,74.63l6.463,-11.426c-1.224,-0.764 -2.809,-0.629 -3.932,0.287c-0.362,0.296 -0.808,0.445 -1.253,0.445c-0.445,0 -0.89,-0.149 -1.253,-0.444c-1.261,-1.03 -3.137,-1.029 -4.397,-0.001c-0.728,0.594 -1.782,0.592 -2.507,0c-1.177,-0.962 -2.942,-0.987 -4.18,-0.235l6.453,11.374l4.606,0Zm6.529,-45.197l-0.019,31.057c-1.351,-0.447 -2.871,-0.338 -4.197,0.248l-0.006,-33.512l18.499,-11.336l2.339,3.408l-16.616,10.135Zm-6.71,31.149c-1.369,-0.473 -2.888,-0.437 -4.235,0.098l0.006,-34.838l-10.777,-6.761l2.427,-3.53l10.281,6.431l19.384,-11.777l2.491,3.629l-19.583,12l0.006,34.748Zm-18.783,-36.007l2.365,-3.439l9.696,6.082l-0.007,33.412c-1.33,-0.511 -2.834,-0.546 -4.197,-0.084l-0.018,-31.107l-7.839,-4.864Zm1.579,-19.75l6.313,3.871l-10.016,14.57l-6.216,-3.804l9.919,-14.637Zm-27.133,11.239c-3.574,-2.784 -5.671,-7.368 -5.906,-12.909c-0.276,-6.514 -6.892,-12.802 -10.509,-15.767c15.297,-2.474 26.848,-0.958 34.362,4.516c5.718,4.166 7.19,9.455 7.505,10.959l-10.741,15.852c-5.952,1.124 -11.03,0.215 -14.711,-2.651Zm42.019,-1.929l15.625,-9.467c0.03,0.048 0.05,0.101 0.082,0.149l2.287,3.332l-17.955,10.908l-8.888,-5.561l2.391,-3.478l6.458,4.117Zm32.36,1.813c-0.061,0.297 -0.237,0.548 -0.494,0.708l-2.611,1.632c-0.489,0.303 -1.173,0.158 -1.495,-0.311l-9.996,-14.567c-0.171,-0.25 -0.231,-0.551 -0.17,-0.847c0.062,-0.296 0.237,-0.548 0.495,-0.708l2.612,-1.632c0.176,-0.11 0.377,-0.168 0.582,-0.168c0.366,0 0.706,0.179 0.912,0.479l9.996,14.567c0.171,0.25 0.231,0.551 0.169,0.847Zm-75.274,-9.012l-2.32,0.914c1.91,4.831 6.497,7.602 14.025,8.469l0.286,-2.473c-8.697,-1.002 -11.009,-4.423 -11.991,-6.91Zm85.172,7.497c-2.728,-0.778 -5.628,-1.331 -8.637,-1.652l-8.408,-12.253c1.091,-2.964 1.965,-6.01 2.596,-9.074c3.432,0.18 12.903,0.573 20.052,-0.135l-7.585,4.742c-1.887,-0.983 -4.165,-0.911 -6.006,0.239c-2.829,1.77 -3.691,5.508 -1.919,8.333c0.859,1.369 2.2,2.322 3.777,2.684c1.573,0.362 3.2,0.089 4.571,-0.768c1.841,-1.152 2.899,-3.165 2.836,-5.291l7.569,-4.732c-3.747,6.091 -7.502,14.719 -8.846,17.907Zm-87.28,-19.234l-2.195,1.18c1.056,1.959 1.711,4.293 1.946,6.938l2.483,-0.219c-0.264,-2.984 -1.016,-5.642 -2.234,-7.899Zm-6.912,-3.654c0.905,0.505 1.734,1.12 2.464,1.829l1.737,-1.787c-0.886,-0.859 -1.89,-1.604 -2.985,-2.215l-1.216,2.173Z" style="fill:#00b3bd;"/></svg>