<?xml version="1.0" encoding="UTF-8" standalone="no"?>
<!DOCTYPE svg PUBLIC "-//W3C//DTD SVG 1.1//EN" "http://www.w3.org/Graphics/SVG/1.1/DTD/svg11.dtd">
<svg width="100%" height="100%" viewBox="0 0 28 40" version="1.1" xmlns="http://www.w3.org/2000/svg" xmlns:xlink="http://www.w3.org/1999/xlink" xml:space="preserve" style="fill-rule:evenodd;clip-rule:evenodd;stroke-linejoin:round;stroke-miterlimit:1.41421;">
    <g transform="matrix(1,0,0,1,-782.999,-1539)">
        <path id="Shape-8" d="M810,1539L810,1568.45L809.721,1568.45L809.592,1568.57C808.754,1569.32 808.273,1570.4 808.273,1571.54C808.273,1572.67 808.754,1573.76 809.592,1574.51L809.849,1574.74L809.55,1575.54L794.358,1575.54L794.358,1578.67L793.594,1579L790.774,1576.2L787.954,1579L787.19,1578.67L787.19,1575.54L786.951,1575.54C784.763,1575.53 782.999,1573.74 782.999,1571.54L782.999,1543C782.999,1540.8 784.763,1539.01 786.951,1539L810,1539ZM791.089,1575.24L793.459,1577.59L793.459,1570.98L788.089,1570.98L788.089,1577.59L790.459,1575.24L791.089,1575.24ZM807.477,1572.52C807.41,1572.19 807.373,1571.87 807.373,1571.54C807.373,1570.41 807.763,1569.32 808.461,1568.45L786.951,1568.45C785.268,1568.45 783.899,1569.84 783.899,1571.54C783.899,1573.24 785.268,1574.63 786.951,1574.63L787.19,1574.63L787.19,1570.52L787.639,1570.07L798.259,1570.07L798.259,1570.98L794.358,1570.98L794.358,1574.63L808.461,1574.63C808.167,1574.26 807.937,1573.87 807.756,1573.43L799.219,1573.43L799.219,1572.52L807.477,1572.52ZM809.101,1567.54L809.101,1539.91L786.951,1539.91C785.268,1539.91 783.899,1541.3 783.899,1543L783.899,1569C784.621,1568.12 785.713,1567.55 786.951,1567.54L809.101,1567.54ZM788.151,1561.72L790.518,1561.72L798.061,1547.09L796.644,1547.09L796.644,1546.18L805.664,1546.18L805.664,1547.09L804.53,1547.09L804.53,1561.84L805.664,1561.84L805.664,1562.75L796.644,1562.75L796.644,1561.84L798.353,1561.84L798.353,1558.21L793.341,1558.21L791.532,1561.72L794.436,1561.72L794.436,1562.63L788.151,1562.63L788.151,1561.72ZM803.631,1561.72L803.631,1558.74L799.252,1558.74L799.252,1561.72L803.631,1561.72ZM803.631,1557.83L803.631,1554.86L799.252,1554.86L799.252,1557.83L803.631,1557.83ZM798.353,1557.3L798.353,1556.85L794.042,1556.85L793.81,1557.3L798.353,1557.3ZM798.353,1555.94L798.353,1548.49L794.511,1555.94L798.353,1555.94ZM803.631,1553.95L803.631,1550.98L799.252,1550.98L799.252,1553.95L803.631,1553.95ZM787.725,1551.89L787.725,1544.53L794.994,1544.53L787.725,1551.89ZM803.631,1550.07L803.631,1547.09L799.252,1547.09L799.252,1550.07L803.631,1550.07ZM792.823,1545.44L788.624,1545.44L788.624,1549.69L792.823,1545.44Z" style="fill:rgb(0,179,189);"/>
    </g>
</svg>
