<?xml version="1.0" encoding="UTF-8" standalone="no"?>
<!DOCTYPE svg PUBLIC "-//W3C//DTD SVG 1.1//EN" "http://www.w3.org/Graphics/SVG/1.1/DTD/svg11.dtd">
<svg width="100%" height="100%" viewBox="0 0 44 40" version="1.1" xmlns="http://www.w3.org/2000/svg" xmlns:xlink="http://www.w3.org/1999/xlink" xml:space="preserve" style="fill-rule:evenodd;clip-rule:evenodd;stroke-linejoin:round;stroke-miterlimit:1.41421;">
    <g transform="matrix(1,0,0,1,-774.996,-1166)">
        <path id="Shape-6" d="M799.624,1166C801.264,1166 802.596,1167.35 802.596,1169L802.596,1175.36L805.367,1175.36C805.626,1175.36 805.836,1175.57 805.836,1175.83L805.836,1178.83C805.836,1179.1 805.626,1179.31 805.367,1179.31L802.306,1179.31C802.233,1179.55 801.07,1183.65 806.36,1187.02C806.466,1187.08 806.541,1187.19 806.568,1187.31C806.596,1187.44 806.573,1187.57 806.506,1187.67L803.201,1192.91C806.128,1193.64 808.727,1195.16 810.764,1197.25C812.423,1195.31 813.616,1192.94 814.139,1190.3C814.19,1190.04 814.439,1189.88 814.691,1189.93C814.945,1189.98 815.11,1190.23 815.059,1190.49C814.496,1193.33 813.204,1195.88 811.404,1197.95C813.212,1200.03 814.497,1202.59 815.059,1205.43C815.086,1205.57 815.051,1205.71 814.962,1205.82C814.873,1205.93 814.74,1206 814.599,1206L778.396,1206C778.255,1206 778.122,1205.93 778.033,1205.82C777.943,1205.71 777.908,1205.57 777.936,1205.43C778.498,1202.59 779.782,1200.03 781.589,1197.95C779.791,1195.88 778.498,1193.33 777.936,1190.49C777.885,1190.23 778.05,1189.98 778.304,1189.93C778.556,1189.88 778.805,1190.04 778.856,1190.3C779.379,1192.94 780.571,1195.31 782.23,1197.25C784.267,1195.16 786.866,1193.64 789.793,1192.91L786.488,1187.67C786.421,1187.57 786.399,1187.44 786.426,1187.31C786.454,1187.19 786.529,1187.08 786.634,1187.02C791.934,1183.65 790.731,1179.45 790.688,1179.31L787.628,1179.31C787.368,1179.31 787.158,1179.1 787.158,1178.83L787.158,1175.83C787.158,1175.57 787.368,1175.36 787.628,1175.36L790.398,1175.36L790.398,1169C790.398,1167.35 791.731,1166 793.37,1166L799.624,1166ZM799.371,1203.48L793.623,1203.48C789.225,1203.48 785.165,1201.64 782.234,1198.64C780.686,1200.45 779.552,1202.63 778.979,1205.05L814.015,1205.05C813.442,1202.63 812.308,1200.45 810.76,1198.64C807.829,1201.64 803.769,1203.48 799.371,1203.48ZM799.371,1202.53C803.527,1202.53 807.363,1200.79 810.124,1197.95C808.131,1195.89 805.562,1194.41 802.666,1193.76L797.132,1202.53L799.371,1202.53ZM795.863,1202.53L790.329,1193.76C787.432,1194.41 784.863,1195.89 782.87,1197.94C785.631,1200.79 789.467,1202.53 793.623,1202.53L795.863,1202.53ZM791.65,1179.31L801.344,1179.31C801.127,1180.41 800.747,1184.34 805.465,1187.56L796.966,1201.03L796.966,1189.35C798.232,1189.12 799.197,1188.01 799.197,1186.67C799.197,1185.16 797.986,1183.94 796.497,1183.94C795.008,1183.94 793.797,1185.16 793.797,1186.67C793.797,1188.01 794.762,1189.12 796.028,1189.35L796.028,1201.03L787.529,1187.56C792.247,1184.34 791.868,1180.41 791.65,1179.31ZM796.497,1188.44C795.526,1188.44 794.736,1187.65 794.736,1186.67C794.736,1185.68 795.526,1184.89 796.497,1184.89C797.468,1184.89 798.259,1185.68 798.259,1186.67C798.259,1187.65 797.468,1188.44 796.497,1188.44ZM778.118,1187.26C778.377,1187.26 778.587,1187.05 778.587,1186.79L778.587,1185.74C778.587,1185.47 778.377,1185.26 778.118,1185.26C777.859,1185.26 777.649,1185.47 777.649,1185.74L777.649,1186.79C777.649,1187.05 777.859,1187.26 778.118,1187.26ZM814.876,1187.26C815.135,1187.26 815.346,1187.05 815.346,1186.79L815.346,1185.74C815.346,1185.47 815.135,1185.26 814.876,1185.26C814.617,1185.26 814.407,1185.47 814.407,1185.74L814.407,1186.79C814.407,1187.05 814.617,1187.26 814.876,1187.26ZM780.771,1183.63C781.031,1183.63 781.24,1183.85 781.24,1184.11C781.24,1184.37 781.031,1184.58 780.771,1184.58L779.731,1184.58C779.472,1184.58 779.262,1184.37 779.262,1184.11C779.262,1183.85 779.471,1183.63 779.731,1183.63L780.771,1183.63ZM776.506,1183.63C776.765,1183.63 776.975,1183.85 776.975,1184.11C776.975,1184.37 776.765,1184.58 776.506,1184.58L775.466,1184.58C775.206,1184.58 774.996,1184.37 774.996,1184.11C774.996,1183.85 775.206,1183.63 775.466,1183.63L776.506,1183.63ZM817.529,1183.63C817.788,1183.63 817.998,1183.85 817.998,1184.11C817.998,1184.37 817.788,1184.58 817.529,1184.58L816.489,1184.58C816.23,1184.58 816.019,1184.37 816.019,1184.11C816.019,1183.85 816.229,1183.63 816.489,1183.63L817.529,1183.63ZM813.264,1183.63C813.523,1183.63 813.733,1183.85 813.733,1184.11C813.733,1184.37 813.523,1184.58 813.264,1184.58L812.223,1184.58C811.964,1184.58 811.754,1184.37 811.754,1184.11C811.754,1183.85 811.964,1183.63 812.223,1183.63L813.264,1183.63ZM778.118,1182.95C778.377,1182.95 778.587,1182.74 778.587,1182.48L778.587,1181.43C778.587,1181.17 778.377,1180.95 778.118,1180.95C777.859,1180.95 777.649,1181.17 777.649,1181.43L777.649,1182.48C777.649,1182.74 777.859,1182.95 778.118,1182.95ZM814.876,1182.95C815.135,1182.95 815.346,1182.74 815.346,1182.48L815.346,1181.43C815.346,1181.17 815.135,1180.95 814.876,1180.95C814.617,1180.95 814.407,1181.17 814.407,1181.43L814.407,1182.48C814.407,1182.74 814.617,1182.95 814.876,1182.95ZM804.898,1178.36L804.898,1176.31L788.097,1176.31L788.097,1178.36L804.898,1178.36ZM801.658,1175.36L801.658,1169C801.658,1167.87 800.746,1166.95 799.624,1166.95L793.37,1166.95C792.249,1166.95 791.337,1167.87 791.337,1169L791.337,1175.36L801.658,1175.36ZM800.399,1171.43C800.14,1171.43 799.93,1171.64 799.93,1171.9L799.93,1173.48C799.93,1173.74 800.14,1173.95 800.399,1173.95C800.659,1173.95 800.869,1173.74 800.869,1173.48L800.869,1171.9C800.869,1171.64 800.659,1171.43 800.399,1171.43ZM799.45,1167.64C800.232,1167.64 800.869,1168.29 800.869,1169.08L800.869,1169.98C800.869,1170.24 800.659,1170.45 800.399,1170.45C800.14,1170.45 799.93,1170.24 799.93,1169.98L799.93,1169.08C799.93,1168.81 799.715,1168.59 799.45,1168.59L796.939,1168.59C796.68,1168.59 796.47,1168.38 796.47,1168.12C796.47,1167.86 796.68,1167.64 796.939,1167.64L799.45,1167.64Z" style="fill:rgb(0,179,189);"/>
    </g>
</svg>
