<?xml version="1.0" encoding="UTF-8" standalone="no"?>
<!DOCTYPE svg PUBLIC "-//W3C//DTD SVG 1.1//EN" "http://www.w3.org/Graphics/SVG/1.1/DTD/svg11.dtd">
<svg width="100%" height="100%" viewBox="0 0 38 41" version="1.1" xmlns="http://www.w3.org/2000/svg" xmlns:xlink="http://www.w3.org/1999/xlink" xml:space="preserve" style="fill-rule:evenodd;clip-rule:evenodd;stroke-linejoin:round;stroke-miterlimit:1.41421;">
    <g transform="matrix(1,0,0,1,-1175,-1166)">
        <path id="Shape-5" d="M1195.89,1166C1196.51,1166 1197.09,1166.24 1197.53,1166.68C1197.97,1167.13 1198.21,1167.71 1198.21,1168.34L1198.21,1175.37C1203.96,1177.16 1208.01,1182.53 1208.19,1188.58L1211.19,1188.58L1211.19,1196.83L1198.2,1196.83L1198.2,1198.39L1198.2,1198.52L1195.87,1202.68L1195.88,1202.68L1195.83,1202.74L1194,1206L1189.8,1198.54L1189.8,1198.39L1189.8,1196.83L1176.81,1196.83L1176.81,1188.58L1179.81,1188.58C1179.99,1182.53 1184.04,1177.16 1189.79,1175.37L1189.79,1168.34C1189.79,1167.71 1190.03,1167.13 1190.47,1166.68C1190.91,1166.24 1191.49,1166 1192.11,1166L1195.89,1166ZM1194.89,1202.68L1197.35,1198.29C1196.87,1197.97 1196.23,1198.02 1195.79,1198.38C1195.66,1198.49 1195.5,1198.54 1195.34,1198.54C1195.19,1198.54 1195.03,1198.49 1194.9,1198.38C1194.41,1197.98 1193.68,1197.98 1193.19,1198.38C1192.94,1198.6 1192.56,1198.6 1192.31,1198.38C1192.06,1198.18 1191.76,1198.07 1191.45,1198.07C1191.17,1198.07 1190.88,1198.16 1190.65,1198.31L1193.11,1202.68L1194.89,1202.68ZM1197.35,1196.83L1195.69,1196.83L1195.69,1197.44C1196.21,1197.19 1196.83,1197.15 1197.35,1197.34L1197.35,1196.83ZM1194.84,1196.83L1193.16,1196.83L1193.16,1197.42C1193.69,1197.19 1194.3,1197.18 1194.84,1197.38L1194.84,1196.83ZM1192.31,1196.83L1190.65,1196.83L1190.65,1197.37C1191.18,1197.17 1191.79,1197.18 1192.31,1197.4L1192.31,1196.83ZM1201.69,1189.43L1186.31,1189.43L1186.31,1189.01C1186.31,1186.38 1187.61,1183.98 1189.79,1182.54L1189.79,1179.56L1189.76,1179.57L1188.61,1176.72C1188.06,1176.97 1187.53,1177.25 1187.02,1177.57L1187.85,1178.83L1187.14,1179.3L1186.31,1178.04C1185.81,1178.4 1185.33,1178.8 1184.88,1179.23L1187.03,1181.39L1186.43,1182L1184.28,1179.83C1183.87,1180.28 1183.49,1180.74 1183.14,1181.23L1184.39,1182.07L1183.91,1182.78L1182.67,1181.94C1182.38,1182.4 1182.13,1182.88 1181.9,1183.37L1184.7,1184.57L1184.37,1185.36L1181.57,1184.16C1181.35,1184.72 1181.17,1185.29 1181.03,1185.88L1182.5,1186.19L1182.33,1187.03L1180.85,1186.72C1180.72,1187.47 1180.65,1188.23 1180.65,1189.01L1180.65,1189.43L1177.66,1189.43L1177.66,1195.97L1178.46,1195.97L1178.46,1194.52L1179.31,1194.52L1179.31,1195.97L1180.61,1195.97L1180.61,1192.89L1181.46,1192.89L1181.46,1195.97L1182.76,1195.97L1182.76,1194.52L1183.61,1194.52L1183.61,1195.97L1184.91,1195.97L1184.91,1192.89L1185.76,1192.89L1185.76,1195.97L1187.06,1195.97L1187.06,1194.52L1187.91,1194.52L1187.91,1195.97L1189.21,1195.97L1189.21,1192.89L1190.06,1192.89L1190.06,1195.97L1191.36,1195.97L1191.36,1194.52L1192.21,1194.52L1192.21,1195.97L1193.51,1195.97L1193.51,1192.89L1194.36,1192.89L1194.36,1195.97L1195.66,1195.97L1195.66,1194.52L1196.51,1194.52L1196.51,1195.97L1197.81,1195.97L1197.81,1192.89L1198.66,1192.89L1198.66,1195.97L1199.96,1195.97L1199.96,1194.52L1200.81,1194.52L1200.81,1195.97L1202.11,1195.97L1202.11,1192.89L1202.96,1192.89L1202.96,1195.97L1204.26,1195.97L1204.26,1194.52L1205.12,1194.52L1205.12,1195.97L1206.41,1195.97L1206.41,1192.89L1207.27,1192.89L1207.27,1195.97L1208.57,1195.97L1208.57,1194.52L1209.42,1194.52L1209.42,1195.97L1210.34,1195.97L1210.34,1189.43L1207.35,1189.43L1207.35,1189.01C1207.35,1188.25 1207.28,1187.51 1207.16,1186.78L1205.68,1187.08L1205.51,1186.24L1206.99,1185.94C1206.86,1185.41 1206.71,1184.89 1206.52,1184.39L1203.7,1185.53L1203.38,1184.74L1206.2,1183.6C1205.96,1183.04 1205.68,1182.51 1205.36,1182L1204.11,1182.82L1203.65,1182.11L1204.89,1181.28C1204.54,1180.77 1204.15,1180.29 1203.72,1179.83L1201.57,1182L1200.97,1181.39L1203.12,1179.23C1202.69,1178.82 1202.23,1178.43 1201.74,1178.08L1200.9,1179.34L1200.19,1178.87L1201.03,1177.6C1200.58,1177.32 1200.1,1177.06 1199.61,1176.83L1198.42,1179.65L1198.21,1179.57L1198.21,1182.54C1200.39,1183.97 1201.69,1186.39 1201.69,1189.01L1201.69,1189.43ZM1194.84,1188.58L1194.84,1173.84L1193.16,1173.84L1193.16,1188.58L1194.84,1188.58ZM1197.36,1188.58L1197.36,1173.84L1195.69,1173.84L1195.69,1188.58L1197.36,1188.58ZM1200.82,1188.58C1200.7,1186.61 1199.75,1184.8 1198.21,1183.59L1198.21,1188.58L1200.82,1188.58ZM1189.79,1188.58L1189.79,1183.59C1188.25,1184.8 1187.3,1186.6 1187.18,1188.58L1189.79,1188.58ZM1192.31,1188.58L1192.31,1173.84L1190.64,1173.84L1190.64,1188.58L1192.31,1188.58ZM1178.97,1181.05L1175.48,1178.66L1175,1179.37L1178.49,1181.75L1178.97,1181.05ZM1209.51,1181.75L1213,1179.37L1212.52,1178.66L1209.03,1181.05L1209.51,1181.75ZM1198.83,1176.49L1198.21,1177.95L1198.21,1176.27C1198.42,1176.34 1198.63,1176.41 1198.83,1176.49ZM1189.79,1177.37L1189.4,1176.4C1189.53,1176.36 1189.66,1176.31 1189.79,1176.27L1189.79,1177.37ZM1181.62,1170.36L1183.99,1173.87L1184.69,1173.39L1182.32,1169.88L1181.62,1170.36ZM1203.31,1173.39L1204.01,1173.87L1206.38,1170.36L1205.68,1169.88L1203.31,1173.39ZM1197.36,1172.99L1197.36,1172.35L1190.64,1172.35L1190.64,1172.99L1197.36,1172.99ZM1197.36,1171.5L1197.36,1170.85L1190.64,1170.85L1190.64,1171.5L1197.36,1171.5ZM1195.89,1166.85L1192.11,1166.85C1191.72,1166.86 1191.35,1167.01 1191.07,1167.29C1190.79,1167.57 1190.64,1167.94 1190.64,1168.34L1190.64,1169.99L1197.36,1169.99L1197.36,1168.34C1197.36,1167.94 1197.21,1167.57 1196.93,1167.29C1196.65,1167.01 1196.28,1166.86 1195.89,1166.85Z" style="fill:rgb(0,179,189);"/>
    </g>
</svg>
