<svg xmlns="http://www.w3.org/2000/svg" viewBox="0 0 44 44"><defs><style>.cls-1{fill:#888;}</style></defs><title>audio-icon</title><g id="Layer_2" data-name="Layer 2"><g id="Layer_1-2" data-name="Layer 1"><path class="cls-1" d="M40,28V18A18,18,0,0,0,4,18V28a4,4,0,0,0-4,4v4a4,4,0,0,0,4,4h.1A5,5,0,0,0,14,39V29a5,5,0,0,0-8-4V18a16,16,0,0,1,32,0v7a5,5,0,0,0-8,4V39a5,5,0,0,0,9.9,1H40a4,4,0,0,0,4-4V32A4,4,0,0,0,40,28ZM9,42a3,3,0,0,1-2.82-2h5.63A3,3,0,0,1,9,42Zm3-4H6V35h6ZM9,26a3,3,0,0,1,2.82,2H6.18A3,3,0,0,1,9,26Zm3,4v3H6V30Zm23-4a3,3,0,0,1,2.82,2H32.18A3,3,0,0,1,35,26Zm0,16a3,3,0,0,1-2.82-2h5.63A3,3,0,0,1,35,42Zm3-4H32V35h6Zm0-5H32V30h6Z"/></g></g></svg>