<svg xmlns="http://www.w3.org/2000/svg" viewBox="0 0 125.32 140.95"><defs><style>.cls-1{fill:#868686;}</style></defs><title>bw-icon10</title><g id="Layer_2" data-name="Layer 2"><g id="Layer_1-2" data-name="Layer 1"><path class="cls-1" d="M118.63,4.34a6.7,6.7,0,0,0-6.52,5.19H73.7v-8A1.5,1.5,0,0,0,72.2,0H53.13a1.5,1.5,0,0,0-1.5,1.5v8H13.21a6.69,6.69,0,1,0,0,3H45.77A48.79,48.79,0,0,0,14.22,51.83a6.68,6.68,0,0,0,0,13.2,49.08,49.08,0,0,0,23.35,35.33v3.06H34.34a1.5,1.5,0,0,0-1.5,1.5v8.58a1.5,1.5,0,0,0,1.5,1.5h3.24v3.77H34.34a1.5,1.5,0,0,0-1.5,1.5v8.58a1.5,1.5,0,0,0,1.5,1.5H50.66a12.1,12.1,0,0,0,24,0H91a1.5,1.5,0,0,0,1.5-1.5v-8.58a1.5,1.5,0,0,0-1.5-1.5H87.75V115H91a1.5,1.5,0,0,0,1.5-1.5v-8.58a1.5,1.5,0,0,0-1.5-1.5H87.75v-3.06A49.09,49.09,0,0,0,111.09,65a6.68,6.68,0,0,0,0-13.2A48.84,48.84,0,0,0,79.55,12.54h32.57a6.69,6.69,0,1,0,6.52-8.19ZM54.63,3H70.7V19.07H54.63ZM6.69,14.73A3.69,3.69,0,1,1,10.38,11,3.69,3.69,0,0,1,6.69,14.73Zm4.89,43.7a3.69,3.69,0,1,1,3.69,3.69A3.69,3.69,0,0,1,11.58,58.43ZM62.66,138a9.11,9.11,0,0,1-9-7.61H71.63A9.11,9.11,0,0,1,62.66,138Zm26.82-10.61H35.84v-5.58H89.48Zm-4.74-8.58H40.58V115H84.75ZM89.48,112H35.84v-5.58H89.48ZM62.66,56.77A3.24,3.24,0,1,1,59.42,60,3.24,3.24,0,0,1,62.66,56.77ZM61.16,54a6.24,6.24,0,1,0,3,0V31.53L81,58c-9.25,6.45-9.16,14-8.68,17H53c.48-3,.57-10.54-8.68-17L61.16,31.53ZM80,78V81.3H45.32V78Zm-6.88,25.44h-9V84.3h9Zm-12-19.12v19.12h-9V84.3Zm52.58-25.87a3.69,3.69,0,1,1-3.69-3.69A3.69,3.69,0,0,1,113.75,58.43ZM108.1,52a6.69,6.69,0,0,0,0,12.79A46.08,46.08,0,0,1,85.5,98.2a1.5,1.5,0,0,0-.75,1.3v3.92H76.12V84.3h5.38A1.5,1.5,0,0,0,83,82.8V76.48a1.5,1.5,0,0,0-1.5-1.5H75.39c-.39-1.73-1.34-9.1,8.49-15.29a1.5,1.5,0,0,0,.47-2.08l-20.42-32h0a1.5,1.5,0,0,0-2.51,0h0L41,57.62a1.5,1.5,0,0,0,.47,2.08c9.83,6.19,8.88,13.56,8.49,15.29H43.82a1.5,1.5,0,0,0-1.5,1.5V82.8a1.5,1.5,0,0,0,1.5,1.5H49.2v19.12H40.58V99.5a1.5,1.5,0,0,0-.75-1.3A46.07,46.07,0,0,1,17.23,64.82a6.69,6.69,0,0,0,0-12.79A45.79,45.79,0,0,1,51.63,13.88v6.7a1.5,1.5,0,0,0,1.5,1.5H72.2a1.5,1.5,0,0,0,1.5-1.5V13.88A45.83,45.83,0,0,1,108.1,52Zm10.53-37.3A3.69,3.69,0,1,1,122.32,11,3.69,3.69,0,0,1,118.63,14.73Z"/></g></g></svg>