<svg xmlns="http://www.w3.org/2000/svg" viewBox="0 0 15.31 13.5"><defs><style>.cls-1{fill:#aaa;}</style></defs><title>comment-icon</title><g id="Layer_2" data-name="Layer 2"><g id="Layer_1-2" data-name="Layer 1"><path id="icon" class="cls-1" d="M7.66,0C3.43,0,0,2.72,0,6.07A5.47,5.47,0,0,0,2.17,10.3l-.77,3.2,4.12-1.6a9.39,9.39,0,0,0,2.15.25c4.23,0,7.66-2.72,7.66-6.08S11.89,0,7.66,0Zm0,11.47a8.9,8.9,0,0,1-2-.22.44.44,0,0,0-.16,0,.58.58,0,0,0-.26.05L2.38,12.39l.47-1.93a.66.66,0,0,0-.23-.67A4.82,4.82,0,0,1,.7,6.07c0-3,3.12-5.4,7-5.4s7,2.43,7,5.4S11.49,11.47,7.66,11.47Z"/></g></g></svg>