<svg xmlns="http://www.w3.org/2000/svg" viewBox="0 0 50 50"><title>diamond-icon</title><g id="Layer_2" data-name="Layer 2"><g id="Layer_1-2" data-name="Layer 1"><path d="M50,14.77a1.14,1.14,0,0,0-.24-.67h0L49.7,14l-.08-.09L36.14.45l0,0A1.11,1.11,0,0,0,35.23,0H14.77a1.11,1.11,0,0,0-.89.47l0,0L.38,13.93.3,14l-.07.07h0a1.06,1.06,0,0,0,0,1.38h0L24.12,49.58h0a1.1,1.1,0,0,0,1.74,0h0L49.75,15.49h0A1.13,1.13,0,0,0,50,14.77ZM34.77,2.27,46.14,13.64H35.92L30.24,2.27Zm-7.06,0L33.4,13.64H16.6L22.29,2.27h5.42Zm-12.48,0h4.53L14.08,13.64H3.86ZM3.32,15.91H13.93l8,26.53ZM25,44.91l-8.7-29H33.7Zm3.11-2.47,8-26.53H46.68Z"/></g></g></svg>