<svg xmlns="http://www.w3.org/2000/svg" viewBox="0 0 1193 1193"><defs><style>.cls-1{fill:#2f3135;}</style></defs><title>house-icon2</title><g id="Layer_2" data-name="Layer 2"><g id="Layer_1-2" data-name="Layer 1"><path id="Shape-9" class="cls-1" d="M1185.05,577.34l-209-209v-287A27.12,27.12,0,0,0,949,54.23H786.28a27.12,27.12,0,0,0-27.1,27.1v70.12L615.66,7.95a27.07,27.07,0,0,0-38.32,0L7.95,577.34A27.1,27.1,0,0,0,27.1,623.6a26.89,26.89,0,0,0,19.18-7.94L162.68,499.27V1165.9a27.1,27.1,0,0,0,27.1,27.1h813.41a27.11,27.11,0,0,0,27.13-27.1V499.27l116.39,116.39a27.1,27.1,0,1,0,38.34-38.32ZM813.41,108.44H921.85v205.7L813.41,205.67ZM433.82,1138.77H216.91v-54.21H433.82Zm271.12,0H488.06V704.94H704.94Zm271.15,0H759.18v-54.21H976.09Zm0-108.44H759.18V677.84a27.12,27.12,0,0,0-27.1-27.1H460.93a27.12,27.12,0,0,0-27.1,27.1v352.48H216.91V445L596.5,65.45,976.09,445ZM623.6,976.09A27.12,27.12,0,1,0,596.5,949,27.11,27.11,0,0,0,623.6,976.09Z"/></g></g></svg>