<svg xmlns="http://www.w3.org/2000/svg" viewBox="0 0 112.42 137.37"><defs><style>.cls-1{fill:#00b2bc;}</style></defs><title>icon16</title><g id="Layer_2" data-name="Layer 2"><g id="Layer_1-2" data-name="Layer 1"><g id="Layer_2-2" data-name="Layer 2"><g id="Layer_1-2-2" data-name="Layer 1-2"><path class="cls-1" d="M17.65,30.19a5.74,5.74,0,1,0,5.74,5.74h0A5.75,5.75,0,0,0,17.65,30.19Zm0,8.48a2.74,2.74,0,1,1,2.74-2.74,2.74,2.74,0,0,1-2.74,2.74Z"/><path class="cls-1" d="M32.28,30.19A5.74,5.74,0,1,0,38,36v0A5.75,5.75,0,0,0,32.28,30.19Zm0,8.48A2.74,2.74,0,1,1,35,35.91v0A2.74,2.74,0,0,1,32.28,38.67Z"/><path class="cls-1" d="M46.9,30.19a5.74,5.74,0,1,0,5.74,5.74h0A5.75,5.75,0,0,0,46.9,30.19Zm0,8.48a2.74,2.74,0,1,1,2.74-2.74,2.74,2.74,0,0,1-2.74,2.74Z"/><path class="cls-1" d="M31.53,99A22.5,22.5,0,1,0,9,76.51,22.5,22.5,0,0,0,31.53,99Zm-12.1-7.24a5.9,5.9,0,0,1,4.48-5.41,5.83,5.83,0,0,0,1.28-.49,7,7,0,0,0,1.51,2.65,6.34,6.34,0,0,0,4.83,1.92,6.34,6.34,0,0,0,4.82-1.92,7,7,0,0,0,1.51-2.65,5.83,5.83,0,0,0,1.28.49,5.9,5.9,0,0,1,4.48,5.41,19.39,19.39,0,0,1-24.2,0Zm6.09-11.34a3,3,0,0,1-.16.66,11.59,11.59,0,0,1-2.61-.36A25.33,25.33,0,0,0,24.14,74v2.17A7.28,7.28,0,0,0,25.52,80.43Zm2.5,2.2a7.28,7.28,0,0,0,3.45.87h.1A7.28,7.28,0,0,0,35,82.63a5.78,5.78,0,0,0,.29.68,5.25,5.25,0,0,1-1.16,3.16,3.42,3.42,0,0,1-2.64,1,3.42,3.42,0,0,1-2.63-1,5.24,5.24,0,0,1-1.12-3.18,5.79,5.79,0,0,0,.26-.66Zm9.67-1.54c-.07-.25-.12-.48-.16-.66a7.28,7.28,0,0,0,1.38-4.26V74a25.34,25.34,0,0,0,1.39,6.73A11.47,11.47,0,0,1,37.69,81.09Zm.24-11.87c-4-1.48-4.76-5.41-4.88-7.57a6.92,6.92,0,0,1,3.58,1.92,7,7,0,0,1,2.06,5v1.75Zm-2,2.39v4.56A4.34,4.34,0,0,1,31.6,80.5h-.1a4.34,4.34,0,0,1-4.33-4.33V71.61a9.79,9.79,0,0,0,4.36-4.32,9.8,9.8,0,0,0,4.38,4.32Zm-10.81-2.4-.77,1.08V68.54a7,7,0,0,1,2.06-5A6.92,6.92,0,0,1,30,61.64C29.88,63.81,29.1,67.74,25.12,69.21ZM31.53,57A19.47,19.47,0,0,1,46.2,89.29a8.9,8.9,0,0,0-5.49-5.6A14.13,14.13,0,0,0,43,83l.68-2.14c-1.31-2.19-2-6.43-2-12.26A10,10,0,0,0,31.77,58.5h-.4a10,10,0,0,0-10,10s0,.06,0,.09c0,5.83-.67,10.07-2,12.26L20.05,83a13.59,13.59,0,0,0,2.27.73,8.9,8.9,0,0,0-5.46,5.57A19.47,19.47,0,0,1,31.53,57Z"/><path class="cls-1" d="M50.76,105H12.3a1.5,1.5,0,0,0,0,3H50.76a1.5,1.5,0,0,0,0-3Z"/><path class="cls-1" d="M50.76,112.56H12.3a1.5,1.5,0,0,0,0,3H50.76a1.5,1.5,0,0,0,0-3Z"/><path class="cls-1" d="M1.5,137.37H110.92a1.5,1.5,0,0,0,1.5-1.5V23.62a1.5,1.5,0,0,0-1.5-1.5H98v-4a1.5,1.5,0,0,0-1.5-1.5h0l.09-2a1.5,1.5,0,0,0-1.44-1.56H92.56V8.86a8.57,8.57,0,0,0-17.13-.59q0,.29,0,.59V13H72.92a1.5,1.5,0,0,0-1.5,1.5s0,0,0,.06l.09,2h0A1.5,1.5,0,0,0,70,18.06s0,0,0,0v.47H67.4a1.5,1.5,0,0,0-1.5,1.5s0,.05,0,.08l.1,2H1.5A1.5,1.5,0,0,0,0,23.62V135.87A1.5,1.5,0,0,0,1.5,137.37Zm92.75-36.71L85.5,114.39v-11a4.35,4.35,0,1,0-3,0v11l-8.75-13.73C78.54,97.09,79,93,78.84,90.87H89.16C89,93,89.46,97.09,94.25,100.66Zm-10.25,0a1.35,1.35,0,1,1,1.35-1.37A1.35,1.35,0,0,1,84,100.66ZM74.15,87.87v-.8H93.84v.8ZM73.08,53.55l-.21-.69.16-.53Zm3.7,16.39L74.84,24.29H93.16L91.22,69.94Zm1.52,3h4.2V84.07H78.3Zm7.2,11.13V72.94h4.2V84.07Zm7.79-62.78H74.71l-.07-1.69H93.36ZM71.87,25.12l.92,21.53H70.26L69.17,25.12Zm1,24.53v1.11a1.49,1.49,0,0,0-2.5,0l-.05-1.06ZM67.68,56a1.5,1.5,0,0,0,1.5,1.42h.08l3-.15a1.5,1.5,0,0,0,.94-.4l.62,14.61a1.5,1.5,0,0,0,1.45,1.43V84.07H72.65a1.5,1.5,0,0,0-1.5,1.5v3.8a1.5,1.5,0,0,0,1.5,1.5h3.17c.17,1.42,0,5-4.92,8.1a1.5,1.5,0,0,0-.48,2.07h0l12.3,19.3h0a1.51,1.51,0,0,0,.22.26l.07.06.2.15.1.05.23.09h.09a1.38,1.38,0,0,0,.69,0h.09l.23-.09.1-.05.2-.15.07-.06a1.5,1.5,0,0,0,.22-.26h0l12.3-19.3A1.5,1.5,0,0,0,97.08,99h0c-4.92-3.1-5.09-6.67-4.92-8.1h3.17a1.5,1.5,0,0,0,1.5-1.5v-3.8a1.5,1.5,0,0,0-1.5-1.5H92.7V72.94a1.5,1.5,0,0,0,1.45-1.43l.93-21.86h14.34v74.12H87.62v-.48a1.5,1.5,0,0,0-1.5-1.5H82.2a1.5,1.5,0,0,0-1.5,1.5v.46H3V49.65H67.4Zm41.7,78.34H3v-7.6H80.7v.46a1.5,1.5,0,0,0,1.5,1.5h3.92a1.5,1.5,0,0,0,1.5-1.5v-.46h21.81Zm0-87.72H95.21l.92-21.53h13.3Zm-31-37.79a5.57,5.57,0,1,1,11.13-.47q0,.24,0,.47V13H78.43ZM74.43,16h19v.58h-19ZM69,21.56h1v.55H69ZM3,25.12H66.16l1.09,21.53H3Z"/></g></g></g></g></svg>