<svg xmlns="http://www.w3.org/2000/svg" viewBox="0 0 56 56"><title>icon6</title><g id="Layer_2" data-name="Layer 2"><g id="Layer_1-2" data-name="Layer 1"><path id="_" data-name=" " d="M7.69,40.84a23.83,23.83,0,0,0,9.84,8.78L6.06,18.22A23.72,23.72,0,0,0,4,28,23.34,23.34,0,0,0,7.69,40.84ZM42.25,20.16l-.44-.72-.45-.75L41,18a5.42,5.42,0,0,1-.37-.7c-.06-.16-.16-.37-.28-.66a3.68,3.68,0,0,1-.25-.72q-.06-.3-.12-.67a4.52,4.52,0,0,1-.06-.75,4.28,4.28,0,0,1,1.16-3,3.73,3.73,0,0,1,2.88-1.27h.31a24,24,0,0,0-27.7-3.39,23.9,23.9,0,0,0-8.58,7.92l.81,0,.72,0,6.41-.31a.93.93,0,0,1,.89.42,1,1,0,0,1,.08,1,.92.92,0,0,1-.81.58q-1.31.16-2.75.25l8.75,26L27.28,27,23.53,16.75,21,16.5a1,1,0,0,1-.61-.25.88.88,0,0,1-.28-.52,1.19,1.19,0,0,1,0-.58.92.92,0,0,1,.36-.47,1,1,0,0,1,.64-.16q4,.28,6.31.31l6.41-.31a.93.93,0,0,1,.89.42,1,1,0,0,1,.08,1,.92.92,0,0,1-.81.58q-1.31.16-2.75.25L40,42.56l2.38-8,.55-1.81q.42-1.41.55-1.84t.36-1.37A14.21,14.21,0,0,0,44.14,28a9.65,9.65,0,0,0,.08-1.2,13,13,0,0,0-2-6.62h0ZM21.22,51A23.12,23.12,0,0,0,28,52a24,24,0,0,0,8-1.37.72.72,0,0,1-.16-.34L28.41,30.09Zm28-32.09a27.55,27.55,0,0,1-1.84,8.63L40.06,48.75a24,24,0,0,0,8.72-8.7A23.3,23.3,0,0,0,52,28a23.71,23.71,0,0,0-3-11.53,15.44,15.44,0,0,1,.19,2.47h0ZM8.19,8.19a28.13,28.13,0,0,0-6,8.94,27.76,27.76,0,0,0,0,21.75A27.51,27.51,0,0,0,17.12,53.78a27.76,27.76,0,0,0,21.75,0A27.5,27.5,0,0,0,53.78,38.88a27.76,27.76,0,0,0,0-21.75A27.51,27.51,0,0,0,38.87,2.22a27.76,27.76,0,0,0-21.75,0A28.13,28.13,0,0,0,8.19,8.19Zm.92,38.7a27,27,0,0,1-5.7-8.53,26.69,26.69,0,0,1,14.23-35,26.69,26.69,0,0,1,35,14.23,26.69,26.69,0,0,1-14.23,35,26.31,26.31,0,0,1-20.72,0,27,27,0,0,1-8.53-5.7Z"/></g></g></svg>