<svg xmlns="http://www.w3.org/2000/svg" viewBox="0 0 36 36.01"><defs><style>.cls-1{fill:#fff;}</style></defs><title>icon5</title><g id="Layer_2" data-name="Layer 2"><g id="Layer_1-2" data-name="Layer 1"><path id="icon" class="cls-1" d="M7.94,24.31l.82-.82A.83.83,0,0,0,9,22.91a.82.82,0,0,0-.82-.82.81.81,0,0,0-.58.24l-.82.82a.82.82,0,0,0,.58,1.4A.85.85,0,0,0,7.94,24.31Zm5.15-.58a.82.82,0,0,0-1.4-.58L3.51,31.33a.82.82,0,0,0,1.12,1.2l0,0,8.18-8.18A.83.83,0,0,0,13.09,23.73Zm0,3.27a.81.81,0,0,0-.58.24l-2.45,2.45a.83.83,0,0,0-.24.58.82.82,0,0,0,.82.82.81.81,0,0,0,.58-.24l2.45-2.45a.82.82,0,0,0-.58-1.4ZM36,.82A.82.82,0,0,0,35.18,0a.7.7,0,0,0-.35.09h0L.51,14.79h0l0,0h0a.82.82,0,0,0-.47.74.81.81,0,0,0,.59.77h0L14.11,21.9l5.57,13.51h0a.8.8,0,0,0,1.51.12h0v0h0L35.92,1.17h0A.83.83,0,0,0,36,.82ZM2.92,15.53,31.6,3.24,14.53,20.31ZM20.47,33.08,15.69,21.47,32.76,4.4Z"/></g></g></svg>