<svg xmlns="http://www.w3.org/2000/svg" viewBox="0 0 114.64 129.77"><defs><style>.cls-1{fill:#00b3be;}</style></defs><title>icon15</title><g id="Layer_2" data-name="Layer 2"><g id="Layer_1-2" data-name="Layer 1"><path class="cls-1" d="M41.22,95.32a1.49,1.49,0,0,0,.08-.22l0-.09a1.49,1.49,0,0,0,0-.32V10.58A10.6,10.6,0,0,0,30.78,0H22.1A10.6,10.6,0,0,0,11.52,10.58V94.69a1.49,1.49,0,0,0,0,.32l0,.09a1.48,1.48,0,0,0,.08.22v0L24,120.44H9.44v3H25.92a1.34,1.34,0,0,0,1,0H66.32A14.49,14.49,0,0,0,80.79,109c0-8.15-6.35-14.79-14.16-14.79A8.79,8.79,0,0,0,57.86,103c0,4.54,3.51,8.27,8.54,9.07a3.77,3.77,0,0,1,3.17,3.9,4.52,4.52,0,0,1-4.41,4.51H28.9L41.21,95.35Zm25.65,13.75c-2.9-.46-6-2.58-6-6.11a5.78,5.78,0,0,1,5.78-5.78c6.15,0,11.16,5.29,11.16,11.79a11.48,11.48,0,0,1-5.86,10,7.56,7.56,0,0,0,.64-3A6.76,6.76,0,0,0,66.87,109.07Zm-42.63,5.1-8.82-18h22l-8.82,18Zm2.92,3-.72,1.48-.72-1.48Zm11.2-88.74H14.52V20.72H38.36ZM14.52,93.19V31.43h6V93.19Zm9-61.77h5.86V93.19H23.51Zm8.86,61.77V31.43h6V93.19ZM22.1,3h8.68a7.59,7.59,0,0,1,7.58,7.58v7.13H14.52V10.58A7.59,7.59,0,0,1,22.1,3Z"/><path class="cls-1" d="M91.31,3.69A26.49,26.49,0,0,0,72.58,48.92c2.24,2.27,5.91,5.65,9.66,9A37.06,37.06,0,0,0,72,56.08c-9.38-.34-17.36,6.43-17.92,15.13a15.93,15.93,0,0,0,4.31,12,16.12,16.12,0,0,0,11.71,5.07,15.93,15.93,0,0,0,7.19-1.56l.14-.08a16.57,16.57,0,0,1,23.67,7,13.49,13.49,0,0,1,.34,10.06,33.92,33.92,0,0,1-30.45,23H0v3H71.06A37,37,0,0,0,108,92.83,36.37,36.37,0,0,0,97.33,67.3l.06-.06L84.5,52.41l-.08-.08A10.84,10.84,0,0,1,92,33.79a11.78,11.78,0,0,1,4.26.83,14.33,14.33,0,0,0,4.81.86A13.54,13.54,0,0,0,114.64,22a13.75,13.75,0,0,0-3.95-9.69A26.66,26.66,0,0,0,91.31,3.69ZM105,92.83q0,1.36-.11,2.7a15.15,15.15,0,0,0-1.05-3.13,19.57,19.57,0,0,0-27.94-8.29A13.17,13.17,0,0,1,57.09,71.4c.45-7,7.16-12.61,14.81-12.33a34.47,34.47,0,0,1,20.2,7.54l2.25,2A33.46,33.46,0,0,1,105,92.83Zm-3.88-60.35a11.38,11.38,0,0,1-3.74-.66,14.63,14.63,0,0,0-5.33-1A13.85,13.85,0,0,0,80.57,52.37c-2.33-2.13-4.41-4.09-5.85-5.55a23.45,23.45,0,1,1,33.83-32.46,10.77,10.77,0,0,1,3.1,7.61A10.54,10.54,0,0,1,101.12,32.48Z"/></g></g></svg>