<svg xmlns="http://www.w3.org/2000/svg" viewBox="0 0 44 44"><defs><style>.cls-1{fill:#888;}</style></defs><title>image-icon</title><g id="Layer_2" data-name="Layer 2"><g id="Layer_1-2" data-name="Layer 1"><path class="cls-1" d="M40,0H4A4,4,0,0,0,0,4V40a4,4,0,0,0,4,4H40a4,4,0,0,0,4-4V4A4,4,0,0,0,40,0Zm2,40a2,2,0,0,1-2,2H4a2,2,0,0,1-2-2V4A2,2,0,0,1,4,2H40a2,2,0,0,1,2,2Zm-4.07-3.37h0a1,1,0,0,0-.24-.34L28.93,23.63h0a1,1,0,0,0-1.63-.34l-4.15,4.15-5.22-7.83A1,1,0,0,0,17,19a1,1,0,0,0-.82.45h0l-10,17h0A1,1,0,0,0,6,37a1,1,0,0,0,1,1H37a1,1,0,0,0,.93-1.37ZM8.75,36l8.32-14.14,5,7.52a1,1,0,0,0,.21.32h0a1,1,0,0,0,1.41,0l4.17-4.17L35.12,36ZM11,16a5,5,0,1,0-5-5A5,5,0,0,0,11,16Zm0-8a3,3,0,1,1-3,3A3,3,0,0,1,11,8Z"/></g></g></svg>