<svg xmlns="http://www.w3.org/2000/svg" viewBox="0 0 31.95 32.01"><defs><style>.cls-1{fill:#303136;}</style></defs><title>link-icon</title><g id="Layer_2" data-name="Layer 2"><g id="Layer_1-2" data-name="Layer 1"><path class="cls-1" d="M19.27,16.47a4.17,4.17,0,0,0,.5,0,4.68,4.68,0,0,0,3.3-1.36l7.5-7.39a4.52,4.52,0,0,0,1.38-3.22,4.41,4.41,0,0,0-1.34-3.21A4.57,4.57,0,0,0,27.38,0h0a4.68,4.68,0,0,0-3.27,1.36l-7.5,7.38a4.56,4.56,0,0,0-1.29,4.15.54.54,0,0,0,.64.42.54.54,0,0,0,.43-.63h0a3.48,3.48,0,0,1,1-3.18l7.5-7.39a3.55,3.55,0,0,1,2.52-1,3.45,3.45,0,0,1,2.49,1,3.37,3.37,0,0,1,1,2.45A3.48,3.48,0,0,1,29.8,7l-7.5,7.39a3.63,3.63,0,0,1-2.92,1,.54.54,0,0,0-.6.48.53.53,0,0,0,.48.58Zm-3.9,6.79a4.51,4.51,0,0,0,1.25-4.32.54.54,0,0,0-1.05.25,3.47,3.47,0,0,1-1,3.32L7.11,29.9a3.64,3.64,0,0,1-2.52,1,3.48,3.48,0,0,1-2.49-1,3.41,3.41,0,0,1-1-2.46A3.47,3.47,0,0,1,2.14,25l7.5-7.39a3.57,3.57,0,0,1,2.95-1,.55.55,0,0,0,.6-.47.53.53,0,0,0-.46-.59h0a4.69,4.69,0,0,0-3.83,1.32l-7.5,7.39A4.56,4.56,0,0,0,0,27.48a4.42,4.42,0,0,0,1.33,3.21A4.57,4.57,0,0,0,4.57,32h0a4.62,4.62,0,0,0,3.27-1.35Zm7.7-14.37a.54.54,0,0,0-.77,0L8.62,22.36a.53.53,0,0,0,0,.76h0a.56.56,0,0,0,.77,0L23.07,9.64a.52.52,0,0,0,0-.74h0Z"/></g></g></svg>