<svg xmlns="http://www.w3.org/2000/svg" viewBox="0 0 858.96 1193"><defs><style>.cls-1{fill:#2f3135;}</style></defs><title>pin-icon</title><g id="Layer_2" data-name="Layer 2"><g id="Layer_1-2" data-name="Layer 1"><path id="Shape-8" class="cls-1" d="M429.48,0C192.29,0,0,194.24,0,433.82,0,786.28,429.48,1193,429.48,1193S859,786.28,859,433.82C859,194.24,666.67,0,429.48,0Zm0,1111.66S53.69,759.18,53.69,433.82c0-209.66,168.24-379.59,375.8-379.59s375.8,169.93,375.8,379.59C805.28,759.18,429.48,1111.66,429.48,1111.66Zm0-894.75c-118.61,0-214.74,97.11-214.74,216.91s96.13,216.91,214.74,216.91S644.22,553.6,644.22,433.82,548.09,216.91,429.48,216.91Zm0,379.59c-89,0-161.06-72.84-161.06-162.68s72.1-162.7,161.06-162.7S590.54,344,590.54,433.82,518.43,596.5,429.48,596.5Z"/></g></g></svg>