<svg xmlns="http://www.w3.org/2000/svg" viewBox="0 0 50 50"><title>plane-icon</title><g id="Layer_2" data-name="Layer 2"><g id="Layer_1-2" data-name="Layer 1"><path d="M18.18,33A1.14,1.14,0,0,0,17,31.82h0a1.16,1.16,0,0,0-.8.33L4.88,43.51a1.16,1.16,0,0,0-.33.81,1.13,1.13,0,0,0,1.13,1.13h0a1.11,1.11,0,0,0,.8-.33L17.85,33.76A1.14,1.14,0,0,0,18.18,33Zm-7.15.8,1.14-1.14a1.12,1.12,0,0,0,.33-.8,1.14,1.14,0,0,0-1.14-1.14h0a1.16,1.16,0,0,0-.8.33L9.43,32.15a1.14,1.14,0,0,0,.8,1.94A1.16,1.16,0,0,0,11,33.76Zm7.15,3.74a1.16,1.16,0,0,0-.8.33L14,41.24a1.14,1.14,0,0,0,.8,1.94,1.11,1.11,0,0,0,.8-.33L19,39.44a1.14,1.14,0,0,0-.8-1.94ZM50,1.14a1.12,1.12,0,0,0-1.62-1h0L.7,20.54h0l0,0h0a1.14,1.14,0,0,0-.65,1,1.11,1.11,0,0,0,.82,1.07v0l18.77,7.73,7.73,18.77h0a1.12,1.12,0,0,0,2.09.17h0l0,0h0L49.89,1.62h0A1.11,1.11,0,0,0,50,1.14ZM4.06,21.57,43.89,4.5,20.18,28.21ZM28.43,45.94,21.79,29.82,45.5,6.11Z"/></g></g></svg>