<svg xmlns="http://www.w3.org/2000/svg" viewBox="0 0 20 10"><defs><style>.cls-1{fill:#1a1d1f;}</style></defs><title>prev-arrow-dark</title><g id="Layer_2" data-name="Layer 2"><g id="Layer_1-2" data-name="Layer 1"><path id="arrow_copy_2" data-name="arrow copy 2" class="cls-1" d="M.13,4.68,4.68.13A.46.46,0,0,1,5,0a.45.45,0,0,1,.45.45h0a.44.44,0,0,1-.13.32L1.55,4.54h18A.46.46,0,0,1,20,5a.45.45,0,0,1-.45.45h-18L5.32,9.22a.48.48,0,0,1,.13.32A.45.45,0,0,1,5,10H5a.46.46,0,0,1-.32-.13L.13,5.32a.45.45,0,0,1,0-.64Z"/></g></g></svg>