<svg xmlns="http://www.w3.org/2000/svg" viewBox="0 0 364.69 296.34"><defs><style>.cls-1{fill:#eee;}</style></defs><title>quote</title><g id="Layer_2" data-name="Layer 2"><g id="Layer_1-2" data-name="Layer 1"><path id="_" data-name=" " class="cls-1" d="M331.95,21.25,321,0q-60.89,28.73-91,75.52t-30.15,106Q199.86,228,220,259q24.12,37.33,69.49,37.33,31.58,0,53.41-21.54t21.83-53.69q0-34.47-21.54-54.85t-53.7-20.39q-23.55,0-43.65,15.51-3.45-10.34-3.45-24.7,0-33.87,26.42-66.9t63.17-48.53h0Zm-199.86,0L121.18,0q-60.88,28.73-91,75.52T0,181.48Q0,228,20.1,259q24.12,37.33,69.49,37.33a75.15,75.15,0,0,0,64.9-36.76,73.3,73.3,0,0,0,10.34-38.47q0-34.47-21.82-54.85T89.59,145.87q-24.12,0-43.65,15.51Q42.5,151,42.5,136.68q0-33.87,26.42-66.9t63.17-48.53h0Z"/></g></g></svg>