<svg xmlns="http://www.w3.org/2000/svg" viewBox="0 0 1464.88 1190.35"><defs><style>.cls-1{fill:#fff;fill-opacity:0.1;}</style></defs><title>quote-colored-bg</title><g id="Layer_2" data-name="Layer 2"><g id="Layer_1-2" data-name="Layer 1"><g id="_-" data-name=" -"><path class="cls-1" d="M1333.38,85.36,1289.55,0Q1045,115.38,923.91,303.35T802.8,729q0,186.84,80.74,311.43,96.89,150,279.13,149.95,126.84,0,214.54-86.52t87.66-215.66q0-138.46-86.51-220.32t-215.69-81.9q-94.62,0-175.33,62.3Q973.51,606.72,973.51,549q0-136,106.12-268.73T1333.38,85.36Zm-802.8,0L486.76,0Q242.21,115.38,121.11,303.35T0,729Q0,915.82,80.74,1040.4q96.89,150,279.13,149.95,80.72,0,149.95-39.2t110.73-108.41q41.52-69.23,41.52-154.57,0-138.46-87.66-220.32t-214.54-81.9q-96.89,0-175.32,62.3Q170.71,606.72,170.71,549q0-136,106.12-268.73T530.59,85.36Z"/></g></g></g></svg>