<svg xmlns="http://www.w3.org/2000/svg" viewBox="0 0 1897.15 283.4"><defs><style>.cls-1{isolation:isolate;}.cls-2{fill:#ffd600;}</style></defs><title>rating-star-filled-active</title><g id="Layer_2" data-name="Layer 2"><g id="Layer_1-2" data-name="Layer 1"><g class="cls-1"><path class="cls-2" d="M292.5,118.39l-64.82,63.21L243,270.9a23.91,23.91,0,0,1,.18,3.57c0,4.64-2.14,8.93-7.32,8.93a14.5,14.5,0,0,1-7.14-2.14l-80.18-42.14L68.39,281.25a15.07,15.07,0,0,1-7.14,2.14c-5.18,0-7.5-4.29-7.5-8.93a24.18,24.18,0,0,1,.36-3.57l15.36-89.29-65-63.21C2.32,116.07,0,113,0,109.82c0-5.36,5.54-7.5,10-8.21l89.64-13L139.82,7.32C141.43,3.93,144.47,0,148.57,0s7.14,3.93,8.75,7.32L197.5,88.57l89.64,13c4.29.71,10,2.86,10,8.21C297.15,113,294.83,116.07,292.5,118.39Z"/></g><g class="cls-1"><path class="cls-2" d="M686.35,118.39l-64.82,63.21,15.36,89.29a23.91,23.91,0,0,1,.18,3.57c0,4.64-2.14,8.93-7.32,8.93a14.5,14.5,0,0,1-7.14-2.14l-80.18-42.14-80.18,42.14a15.07,15.07,0,0,1-7.14,2.14c-5.18,0-7.5-4.29-7.5-8.93a24.18,24.18,0,0,1,.36-3.57l15.36-89.29-65-63.21c-2.14-2.32-4.46-5.36-4.46-8.57,0-5.36,5.54-7.5,10-8.21l89.64-13L533.67,7.32C535.27,3.93,538.31,0,542.42,0s7.14,3.93,8.75,7.32l40.18,81.25,89.64,13c4.29.71,10,2.86,10,8.21C691,113,688.67,116.07,686.35,118.39Z"/></g><g class="cls-1"><path class="cls-2" d="M1080.21,118.39l-64.82,63.21,15.36,89.29a24,24,0,0,1,.18,3.57c0,4.64-2.14,8.93-7.32,8.93a14.5,14.5,0,0,1-7.14-2.14l-80.18-42.14L856.1,281.25A15.07,15.07,0,0,1,849,283.4c-5.18,0-7.5-4.29-7.5-8.93a24.18,24.18,0,0,1,.36-3.57l15.36-89.29-65-63.21c-2.14-2.32-4.46-5.36-4.46-8.57,0-5.36,5.54-7.5,10-8.21l89.64-13L927.53,7.32C929.13,3.93,932.17,0,936.28,0s7.14,3.93,8.75,7.32l40.18,81.25,89.64,13c4.29.71,10,2.86,10,8.21C1084.85,113,1082.53,116.07,1080.21,118.39Z"/></g><g class="cls-1"><path class="cls-2" d="M1498.66,118.39l-64.82,63.21,15.36,89.29a24,24,0,0,1,.18,3.57c0,4.64-2.14,8.93-7.32,8.93a14.5,14.5,0,0,1-7.14-2.14l-80.18-42.14-80.18,42.14a15.07,15.07,0,0,1-7.14,2.14c-5.18,0-7.5-4.29-7.5-8.93a24.31,24.31,0,0,1,.36-3.57l15.36-89.29-65-63.21c-2.14-2.32-4.46-5.36-4.46-8.57,0-5.36,5.54-7.5,10-8.21l89.64-13L1346,7.32c1.61-3.39,4.64-7.32,8.75-7.32s7.14,3.93,8.75,7.32l40.18,81.25,89.64,13c4.29.71,10,2.86,10,8.21C1503.3,113,1501,116.07,1498.66,118.39Z"/></g><g class="cls-1"><path class="cls-2" d="M1892.5,118.39l-64.82,63.21L1843,270.9a24,24,0,0,1,.18,3.57c0,4.64-2.14,8.93-7.32,8.93a14.5,14.5,0,0,1-7.14-2.14l-80.18-42.14-80.18,42.14a15.07,15.07,0,0,1-7.14,2.14c-5.18,0-7.5-4.29-7.5-8.93a24.31,24.31,0,0,1,.36-3.57l15.36-89.29-65-63.21c-2.14-2.32-4.46-5.36-4.46-8.57,0-5.36,5.54-7.5,10-8.21l89.64-13,40.18-81.25c1.61-3.39,4.64-7.32,8.75-7.32s7.14,3.93,8.75,7.32l40.18,81.25,89.64,13c4.29.71,10,2.86,10,8.21C1897.15,113,1894.83,116.07,1892.5,118.39Z"/></g></g></g></svg>