<svg xmlns="http://www.w3.org/2000/svg" viewBox="0 0 40 44"><defs><style>.cls-1{fill:#aaa;}</style></defs><title>share-icon</title><g id="Layer_2" data-name="Layer 2"><g id="Layer_1-2" data-name="Layer 1"><path class="cls-1" d="M35,34a5,5,0,0,0-3.75,1.72L9.73,23.53a4.57,4.57,0,0,0,0-3.06L31.26,8.27A5,5,0,1,0,30,5a5,5,0,0,0,.26,1.53L8.74,18.73a5,5,0,1,0,0,6.55l21.53,12.2A5,5,0,1,0,35,34ZM35,2a3,3,0,1,1-3,3A3,3,0,0,1,35,2ZM5,25a3,3,0,1,1,3-3A3,3,0,0,1,5,25ZM35,42a3,3,0,1,1,3-3A3,3,0,0,1,35,42Z"/></g></g></svg>