<svg xmlns="http://www.w3.org/2000/svg" viewBox="0 0 15.31 15"><defs><style>.cls-1{fill:#aaa;}</style></defs><title>tag-icon</title><g id="Layer_2" data-name="Layer 2"><g id="Layer_1-2" data-name="Layer 1"><path id="icon" class="cls-1" d="M3.13,2.05a1,1,0,1,0,1,1,1,1,0,0,0-1-1Zm0,1.36a.34.34,0,1,1,.35-.34.34.34,0,0,1-.35.34ZM8.35,9.2a.32.32,0,0,0,.25-.1L10,7.74a.34.34,0,0,0,.1-.24.34.34,0,0,0-.34-.34h0a.36.36,0,0,0-.25.1L8.11,8.62a.34.34,0,0,0-.1.24.34.34,0,0,0,.35.34h0ZM8,12.27a.36.36,0,0,0,.25-.1l2.09-2a.34.34,0,0,0,.1-.24.34.34,0,0,0-.34-.34h0a.35.35,0,0,0-.25.09L7.76,11.69a.34.34,0,0,0-.1.24.34.34,0,0,0,.35.34ZM15.21,7.6,7.56.1A.36.36,0,0,0,7.31,0H1A1,1,0,0,0,0,1V7.16a.34.34,0,0,0,.1.24l7.66,7.5a.35.35,0,0,0,.49,0l7-6.82a.33.33,0,0,0,0-.47ZM8,14.18.7,7V1A.34.34,0,0,1,1,.68H7.17l7.31,7.16ZM6.37,10.33a.32.32,0,0,0-.1.24.34.34,0,0,0,.35.34h0a.36.36,0,0,0,.25-.1l.7-.68a.34.34,0,0,0,.1-.24.34.34,0,0,0-.35-.34h0a.35.35,0,0,0-.25.09Z"/></g></g></svg>