<svg xmlns="http://www.w3.org/2000/svg" viewBox="0 0 44 44"><defs><style>.cls-1{fill:#888;}</style></defs><title>video-icon</title><g id="Layer_2" data-name="Layer 2"><g id="Layer_1-2" data-name="Layer 1"><path class="cls-1" d="M22,0A22,22,0,1,0,44,22,22,22,0,0,0,22,0Zm0,42A20,20,0,1,1,42,22,20,20,0,0,1,22,42Zm9.61-20.77h0l-.18-.1-.08,0L17.63,13.22h0A1,1,0,0,0,17,13a1,1,0,0,0-1,1V30a1,1,0,0,0,1,1,1,1,0,0,0,.61-.23h0l13.75-7.86.07,0,.18-.1h0a1,1,0,0,0,0-1.54ZM18,28.29V15.71L29,22Z"/></g></g></svg>