<svg xmlns="http://www.w3.org/2000/svg" viewBox="0 0 44 44"><defs><style>.cls-1{fill:#fff;}</style></defs><title>video-button</title><g id="Layer_2" data-name="Layer 2"><g id="Layer_1-2" data-name="Layer 1"><path id="video_btn" data-name="video btn" class="cls-1" d="M31.62,21.23h0l-.17-.1-.08,0L17.63,13.22h0A1,1,0,0,0,16,14V30a1,1,0,0,0,1.62.77h0l13.74-7.86.08,0,.17-.1h0a1,1,0,0,0,0-1.54ZM18,28.29V15.71L29,22ZM22,0A22,22,0,1,0,44,22,22,22,0,0,0,22,0Zm0,42A20,20,0,1,1,42,22,20,20,0,0,1,22,42Z"/></g></g></svg>